<?xml version="1.0" encoding="UTF-8"?>
<svg width="129px" height="80px" viewBox="0 0 129 80" version="1.1" xmlns="http://www.w3.org/2000/svg" xmlns:xlink="http://www.w3.org/1999/xlink">
    <!-- Generator: Sketch 44.1 (41455) - http://www.bohemiancoding.com/sketch -->
    <title>sponser-arphic</title>
    <desc>Created with Sketch.</desc>
    <defs>
        <polygon id="path-1" points="0 28.707 126.867 28.707 126.867 0 0 0"></polygon>
    </defs>
    <g id="Page-1" stroke="none" stroke-width="1" fill="none" fill-rule="evenodd">
        <g id="Group-19">
            <rect id="Rectangle-4" x="0" y="0" width="129" height="80"></rect>
            <g id="spt-3" transform="translate(1.000000, 25.000000)">
                <path d="M15.2493,1.2573 C15.0978,1.4043 14.9628,1.5558 14.8038,1.6998 C14.7798,1.8318 14.6688,1.8888 14.6073,2.0043 C14.5473,2.1198 14.5338,2.2668 14.4723,2.3823 C14.4963,2.4648 14.4423,2.5653 14.5023,2.6373 C14.6478,2.7108 14.8218,2.6628 14.9838,2.7003 L15.1623,2.6823 L15.5988,2.8248 C15.7548,2.9298 15.9078,3.0423 16.0473,3.1668 C16.1433,3.2553 16.2483,3.3648 16.2678,3.5088 C16.3548,3.6543 16.3503,3.8748 16.4658,4.0158 L16.5318,4.2078 L16.5273,4.4463 C16.4808,4.6038 16.4778,4.7628 16.3908,4.9038 C16.3083,4.9743 16.2963,5.0928 16.2978,5.1828 C16.2603,5.5503 15.9798,5.7813 15.8178,6.0843 C15.7563,6.1098 15.7398,6.1833 15.7023,6.2283 C15.6468,6.2388 15.6018,6.2823 15.5718,6.3318 C15.4683,6.4098 15.3258,6.4443 15.2448,6.5493 C14.8803,6.6993 14.4753,6.7503 14.1033,6.8433 C13.9593,6.8043 13.8243,6.8598 13.6788,6.8043 C13.4553,6.6228 13.1538,6.7473 12.9423,6.5373 C12.8988,6.4803 12.8313,6.4428 12.8028,6.3753 L12.4128,6.1653 C12.2568,5.9433 12.0363,5.7738 11.9088,5.5293 C11.7528,5.4228 11.7138,5.2263 11.6988,5.0328 C11.6088,4.9473 11.6373,4.8093 11.5623,4.7133 C11.5773,4.6578 11.5653,4.5903 11.5443,4.5438 C11.5158,4.5483 11.4978,4.5138 11.5008,4.4883 C11.5968,4.2543 11.5533,3.9933 11.7018,3.7758 L11.7753,3.6288 C11.7378,3.5238 11.7603,3.3993 11.8233,3.2928 L12.0693,2.8233 C12.2763,2.5683 12.5013,2.3298 12.7383,2.1048 C12.9258,1.8573 13.2093,1.7358 13.4433,1.5378 C13.8558,1.3923 14.2878,1.1283 14.7528,1.1133 C14.8818,1.0923 15.0273,1.0143 15.1608,1.0743 C15.1953,1.0533 15.2043,1.1103 15.2328,1.1238 L15.2493,1.2573 Z" id="Fill-1" fill="#1D1D1B"></path>
                <path d="M28.5024,0.1953 C28.5384,0.3468 28.5654,0.4998 28.5504,0.6543 C28.3614,0.9228 28.2684,1.3413 28.0809,1.6203 C28.0644,1.7628 27.9639,1.8078 27.9444,1.9413 C27.8784,2.0958 27.8499,2.2728 27.7839,2.4168 L27.8289,2.5668 C27.8034,2.7543 27.7989,2.9478 27.7479,3.1203 C27.7749,3.2313 27.7509,3.3438 27.7599,3.4698 C27.7794,3.7218 27.6669,3.9723 27.8199,4.2348 C27.8619,4.5348 27.9294,4.8603 27.9729,5.1693 C27.9294,5.3313 27.9414,5.5098 27.9294,5.6718 C27.8574,5.7963 27.7974,5.9283 27.7134,6.0438 C27.7254,6.0948 27.6774,6.1053 27.6564,6.1443 C27.5649,6.3573 27.3759,6.5403 27.2364,6.7248 C27.1089,6.8718 26.9994,7.0053 26.8389,7.0968 C26.5449,7.3158 26.2284,7.5198 25.9599,7.7553 C25.8654,7.7883 25.8084,7.8873 25.7019,7.8693 C25.6404,7.9488 25.5564,7.9368 25.4844,7.9758 C25.3119,8.1438 25.0284,8.1483 24.8409,8.2983 C24.6054,8.4183 24.3699,8.5383 24.1224,8.6088 C23.7984,8.6553 23.5104,8.8083 23.1849,8.8443 C22.7304,8.8983 22.2354,9.0378 21.8229,9.1773 C21.3084,9.3228 20.6724,9.5058 20.1414,9.4503 C19.7499,9.4698 19.3869,9.4803 18.9939,9.5328 C18.7779,9.6033 18.5709,9.5043 18.3564,9.5883 C17.7969,9.5823 17.2254,9.5268 16.6569,9.5643 C16.3644,9.5703 16.0899,9.5298 15.8154,9.4458 C15.5334,9.4068 15.1944,9.5193 14.9829,9.2703 C14.9379,9.2058 15.0204,9.1743 15.0309,9.1308 C15.1869,9.0183 15.4194,9.0168 15.5439,8.8578 C15.7104,8.8293 15.8379,8.7243 15.9819,8.6478 C16.5024,8.4903 16.9464,8.2263 17.4144,7.9758 C17.7219,7.7298 18.0984,7.5663 18.4569,7.3623 C18.6804,7.2783 18.8574,7.1283 19.0779,7.0338 C19.2849,6.9633 19.4139,6.7833 19.6059,6.6948 C19.8639,6.5793 20.0454,6.3648 20.2854,6.2223 C20.5959,6.1608 20.7249,5.8518 20.9124,5.6568 C21.0879,5.5833 21.2559,5.4783 21.3774,5.3523 C21.5634,5.3628 21.6564,5.2023 21.8004,5.1243 C22.1469,4.9143 22.3809,4.5378 22.7889,4.3758 C22.9689,4.2363 23.1594,4.0968 23.3034,3.9333 C23.5479,3.6828 23.8464,3.4833 24.1464,3.2943 C24.3999,3.1263 24.6309,2.9433 24.8439,2.7318 C25.0869,2.5578 25.4064,2.4918 25.6284,2.2788 C25.8939,1.9803 26.1714,1.6593 26.5779,1.5303 C26.8104,1.4838 26.9094,1.2588 27.0669,1.1133 C27.2139,1.0038 27.3234,0.8283 27.5079,0.7518 C27.6039,0.5163 27.8469,0.3408 28.0389,0.1653 C28.1094,0.1173 28.2144,0.1353 28.2669,0.0588 C28.3659,0.0453 28.4544,0.1203 28.5024,0.1953" id="Fill-3" fill="#1D1D1B"></path>
                <path d="M20.1975,11.5581 C20.4285,11.6256 20.673,11.6841 20.8845,11.7786 C21.117,11.8011 21.291,11.9661 21.5145,12.0216 C21.69,12.1416 21.915,12.1506 22.071,12.2991 C22.1895,12.3846 22.3575,12.3561 22.464,12.4491 C22.563,12.6186 22.794,12.5511 22.893,12.7191 C22.992,12.7551 23.073,12.8196 23.1285,12.9006 C23.3925,12.9636 23.5065,13.2471 23.7645,13.3326 C24.003,13.5021 24.108,13.7736 24.3855,13.9176 C24.633,14.1336 24.9675,14.3031 25.113,14.6301 C25.203,14.8311 25.3065,15.0231 25.3965,15.2226 C25.4625,15.2616 25.458,15.3276 25.518,15.3876 C25.6245,15.5256 25.7205,15.7041 25.773,15.8841 C25.7835,16.2336 25.8375,16.5831 25.845,16.9431 C25.776,17.0931 25.818,17.2716 25.7685,17.4276 C25.758,17.5596 25.7025,17.6916 25.7325,17.8341 C25.731,18.0126 25.641,18.2031 25.6095,18.3741 C25.563,18.6081 25.47,18.7656 25.353,18.9381 C25.2135,19.2411 24.9975,19.5021 24.8685,19.8081 C24.741,20.0241 24.4965,20.0541 24.375,20.2806 C24.1935,20.4051 24.099,20.6181 23.91,20.6841 C23.6955,20.9016 23.5095,21.1266 23.229,21.2601 C22.683,21.5091 22.1055,21.8406 21.4875,21.8601 C21.3615,21.8076 21.186,21.8211 21.1095,21.6906 C20.94,21.6831 20.892,21.4821 20.7675,21.3741 C20.7735,21.1731 20.6025,21.0426 20.655,20.8326 C20.628,20.6361 20.6235,20.4321 20.652,20.2266 C20.6385,19.8891 20.514,19.5681 20.5335,19.2246 L20.4855,18.8556 C20.424,18.3591 20.2665,17.8626 20.127,17.3826 C20.1375,17.2506 20.061,17.1321 20.0865,16.9806 C19.917,16.3581 19.5255,15.8061 19.365,15.1521 C19.2975,14.9451 19.107,14.7546 19.0275,14.5551 C18.6075,14.0751 18.267,13.4886 17.9325,12.9726 C17.805,12.8301 17.7,12.6486 17.535,12.5301 C17.3685,12.2886 17.133,12.0651 16.9335,11.8266 C16.785,11.6901 16.671,11.5386 16.506,11.4216 C16.4505,11.3406 16.4055,11.2641 16.362,11.1741 C16.4145,11.0091 16.6335,11.0376 16.791,11.0091 C17.007,11.0496 17.244,11.0061 17.457,11.1006 L17.76,11.1411 C17.973,11.1486 18.1815,11.2656 18.408,11.2626 C18.759,11.2791 19.107,11.3526 19.446,11.4216 C19.6425,11.4486 19.839,11.4831 20.0295,11.4951 L20.1975,11.5581 Z" id="Fill-5" fill="#1D1D1B"></path>
                <path d="M11.3133,25.1592 C8.4513,27.6522 5.1363,28.0707 5.1363,28.0707 C5.1363,28.0707 4.8648,28.0347 5.0508,27.8862 C5.2083,27.7602 9.7053,25.9992 11.0868,24.6132 C11.0868,24.6132 11.4543,24.3387 11.6058,24.5637 C11.7573,24.7887 11.3133,25.1592 11.3133,25.1592 L11.3133,25.1592 Z M6.8943,24.8862 C7.1013,24.7257 7.3068,24.5637 7.5513,24.4032 C7.9938,24.0702 8.1213,24.0657 8.5818,23.7852 C8.6808,23.7852 8.7693,23.7342 8.8668,23.7132 C8.9658,23.7537 9.0633,23.7027 9.1533,23.7837 C9.2013,23.8842 9.3198,23.9742 9.2808,24.1152 C9.2118,24.2757 9.1128,24.4767 8.9373,24.5262 C8.7888,24.6477 8.7018,24.7062 8.5338,24.8172 C8.4363,24.9282 8.2533,24.9972 8.1453,25.0962 C8.0568,25.1277 7.6998,25.2852 7.5318,25.3962 C7.3458,25.4757 7.1253,25.6062 6.9183,25.5357 C6.7608,25.4967 6.6108,25.5012 6.5808,25.3587 C6.5508,25.2282 6.7968,24.9867 6.8943,24.8862 L6.8943,24.8862 Z M9.5643,22.9497 C9.6438,22.9497 9.6633,22.8792 9.7128,22.8492 C9.7818,22.8297 9.8403,22.7892 9.8883,22.7682 L10.2723,22.7892 C10.3218,22.8282 10.4103,22.8882 10.3608,22.9797 C10.3218,23.0607 10.2228,23.0892 10.2333,23.2002 C10.0863,23.3802 9.9678,23.6022 9.7023,23.6022 C9.5643,23.5527 9.3693,23.4717 9.3393,23.3022 C9.3288,23.1312 9.4473,23.0412 9.5643,22.9497 L9.5643,22.9497 Z M16.3338,17.1987 C16.2858,16.9827 16.4103,16.7652 16.3338,16.5507 C16.3338,16.5012 16.2948,16.4517 16.3143,16.3917 C16.2843,16.1562 16.2378,15.9597 16.2183,15.7347 C16.2468,15.6267 16.1508,15.5067 16.1883,15.3792 C16.1403,15.3612 16.1403,15.3012 16.1403,15.2427 C16.0158,14.9772 16.0833,14.6412 16.0338,14.3472 C15.9768,13.9047 15.7548,13.5522 15.6288,13.1382 C15.5628,13.0197 15.4953,12.9222 15.4278,12.8052 C15.2733,12.5292 15.0513,12.3222 14.8488,12.0777 C14.8398,11.9487 14.7513,11.8512 14.7048,11.7432 C14.5788,11.4987 14.5113,11.2227 14.3388,11.0157 C14.2803,10.9392 14.1843,10.8297 14.1168,10.7607 C13.6923,10.2597 13.1238,9.9657 12.6333,9.5442 C12.3243,9.4272 12.0543,9.1902 11.7363,9.1032 C11.5158,8.9847 11.2173,9.0552 10.9758,8.9862 C10.7253,8.8287 10.5243,8.6517 10.2528,8.5242 C10.1478,8.4762 10.0323,8.4552 9.9258,8.3967 C9.5313,8.3592 9.1263,8.2512 8.7123,8.3112 L8.4633,8.2917 C8.0478,8.2437 7.6158,8.3127 7.2108,8.3322 C6.9498,8.3322 6.7488,8.5017 6.4788,8.4417 C6.2763,8.5107 6.0843,8.5512 5.8728,8.6007 L5.4768,8.8167 C5.0733,9.0927 4.6113,9.2112 4.1283,9.3012 C4.0518,9.3297 3.9753,9.3987 3.8793,9.3897 C3.4263,9.6462 3.0318,9.9717 2.6268,10.2867 C2.3478,10.5537 2.0388,10.8477 1.8663,11.2227 C1.5873,11.6157 1.2018,11.8737 1.0008,12.3147 C0.9243,12.6102 0.6918,12.8172 0.5088,13.0242 C0.4518,13.1622 0.4413,13.3392 0.3168,13.4172 C0.3273,13.5852 0.2118,13.7232 0.2298,13.8792 C0.1158,14.1447 0.2013,14.4702 0.1923,14.7357 C0.0678,15.0312 0.0768,15.3837 0.0003,15.6897 L0.0303,15.8862 C0.1638,16.1997 0.2898,16.5447 0.2508,16.9092 L0.3183,17.3127 C0.4728,17.4687 0.5598,17.6562 0.6843,17.8317 C0.7908,17.9007 0.9348,17.9802 1.0128,18.0672 L1.1313,18.1182 C1.7763,19.0992 2.9088,19.7487 4.1973,19.7457 C6.2028,19.7412 7.8258,18.1617 7.8243,16.2162 C7.8228,15.2202 7.3953,14.3202 6.7098,13.6827 L6.7308,13.6317 C7.0008,13.4127 8.1903,12.5892 9.8223,13.6782 C11.6853,14.9217 12.9648,19.8957 6.5418,23.6067 C6.3408,23.8137 6.1473,24.0597 6.0798,24.3447 C6.0708,24.6102 6.1473,24.8262 6.0993,25.0812 C6.0033,25.3182 5.8593,25.5252 5.7048,25.7322 C5.6673,25.8702 5.6283,25.9977 5.6673,26.1342 C5.7918,26.2917 5.6763,26.4897 5.6088,26.6367 C5.3403,26.9232 5.0703,27.1287 4.7628,27.3852 C4.5603,27.4842 4.5123,27.7092 4.4538,27.9072 C4.3968,28.1037 4.1178,28.0947 4.0683,28.2912 C4.0683,28.3782 4.0503,28.5072 4.1268,28.5657 C4.2228,28.7127 4.4448,28.7127 4.6083,28.7022 C5.2158,28.6047 5.8413,28.5447 6.3903,28.3167 C6.6108,28.2672 6.7953,28.1787 7.0158,28.1202 C7.4973,27.9402 7.9593,27.7737 8.4408,27.5862 C8.6823,27.4182 8.9808,27.4077 9.2118,27.1917 C9.6063,27.0642 9.9813,26.8257 10.3473,26.6382 C10.5213,26.5107 10.7043,26.4027 10.8873,26.3142 C11.0403,26.1462 11.2818,26.0667 11.4543,25.9197 C12.0138,25.4667 12.4848,24.9732 13.0248,24.4617 C13.3128,24.1872 13.5438,23.8707 13.8513,23.6157 C14.0148,23.3697 14.1693,23.1027 14.3808,22.9062 C14.4678,22.7292 14.6118,22.5627 14.7093,22.3932 C14.8728,22.1682 15.0258,21.9117 15.1413,21.6462 C15.4788,21.1152 15.6423,20.5332 15.8823,19.9347 C15.9108,19.6962 16.0368,19.5012 16.0848,19.2537 C16.1133,18.9597 16.2003,18.6747 16.2678,18.3882 C16.2963,18.0342 16.3533,17.6817 16.3728,17.2977 L16.3338,17.1987 Z" id="Fill-7" fill="#1D1D1B"></path>
                <path d="M6.12405,0.00045 C8.01705,0.00045 9.55305,1.53345 9.55305,3.42795 C9.55305,5.32245 8.01705,6.85695 6.12405,6.85695 C4.23105,6.85695 2.69505,5.32245 2.69505,3.42795 C2.69505,1.53345 4.23105,0.00045 6.12405,0.00045" id="Fill-9" fill="#1D1D1B"></path>
                <path d="M83.0679,12.48675 L81.3864,12.48675 C81.3864,12.48675 81.0909,12.47925 81.0909,12.78225 L81.0909,24.33225 C81.0909,24.63525 81.3969,24.64125 81.3969,24.64125 L83.0679,24.64125 C83.0679,24.64125 83.3844,24.63525 83.3844,24.33225 L83.3844,12.79275 C83.3844,12.49125 83.0679,12.48675 83.0679,12.48675" id="Fill-11" fill="#1D1D1B"></path>
                <path d="M90.64995,12.48675 L88.96695,12.48675 C88.96695,12.48675 88.67295,12.47925 88.67295,12.78225 L88.67295,22.55025 C88.67295,22.85175 88.97895,22.85925 88.97895,22.85925 L90.64995,22.85925 C90.64995,22.85925 90.96645,22.85175 90.96645,22.55025 L90.96645,12.79275 C90.96645,12.49125 90.64995,12.48675 90.64995,12.48675" id="Fill-13" fill="#1D1D1B"></path>
                <path d="M85.17285,24.6348 L86.93085,24.6348 C86.93085,24.6348 87.23235,24.6348 87.23235,24.3333 L87.23235,5.6658 L84.86985,5.6658 L84.86985,24.3333 C84.86985,24.6348 85.17285,24.6348 85.17285,24.6348" id="Fill-15" fill="#1D1D1B"></path>
                <path d="M98.1543,4.31145 C98.1543,4.00995 98.4588,4.01145 98.4588,4.01145 L100.2153,4.01145 C100.2153,4.01145 100.5168,4.00995 100.5168,4.31145 L100.5168,24.33345 C100.5168,24.63495 100.2153,24.63495 100.2153,24.63495 L98.4588,24.63495 C98.4588,24.63495 98.1543,24.63495 98.1543,24.33345 L98.1543,4.31145 Z" id="Fill-17" fill="#1D1D1B"></path>
                <path d="M91.4688,8.73675 L81.0063,8.73675 C81.0063,8.73675 80.7018,8.73225 80.7018,9.03525 L80.7018,10.62675 C80.7018,10.92825 81.0063,10.92675 81.0063,10.92675 L91.4688,10.92675 C91.7718,10.92675 91.7733,10.62675 91.7733,10.62675 L91.7733,9.03525 C91.7733,9.03525 91.7718,8.73675 91.4688,8.73675" id="Fill-19" fill="#1D1D1B"></path>
                <path d="M92.5572,4.36125 L94.8777,10.13025 C94.8777,10.13025 94.9962,10.43475 95.2347,10.43475 L97.0557,10.43475 C97.4052,10.43475 97.2492,10.13025 97.2492,10.13025 L94.9287,4.36125 C94.8177,4.06875 94.6272,4.05825 94.6272,4.05825 L92.7747,4.05825 C92.7747,4.05825 92.4402,4.06875 92.5572,4.36125" id="Fill-21" fill="#1D1D1B"></path>
                <path d="M92.5572,12.00195 L94.8777,17.77095 C94.8777,17.77095 94.9962,18.07545 95.2347,18.07545 L97.0557,18.07545 C97.4052,18.07545 97.2492,17.77095 97.2492,17.77095 L94.9287,12.00195 C94.8177,11.70795 94.6272,11.69745 94.6272,11.69745 L92.7747,11.69745 C92.7747,11.69745 92.4402,11.70795 92.5572,12.00195" id="Fill-23" fill="#1D1D1B"></path>
                <path d="M102.1812,19.27335 L92.3232,19.27335 C92.3232,19.27335 92.0187,19.26885 92.0187,19.57185 L92.0187,21.16335 C92.0187,21.46485 92.3232,21.46485 92.3232,21.46485 L102.1812,21.46485 C102.4827,21.46485 102.4842,21.16335 102.4842,21.16335 L102.4842,19.57185 C102.4842,19.57185 102.4827,19.27335 102.1812,19.27335" id="Fill-25" fill="#1D1D1B"></path>
                <path d="M91.4688,4.0098 C85.6173,4.7268 81.0063,4.7103 81.0063,4.7103 C81.0063,4.7103 80.7018,4.7058 80.7018,5.0088 L80.7018,6.5988 C80.7018,6.9018 81.0063,6.9003 81.0063,6.9003 C81.0063,6.9003 86.3598,7.0398 91.4688,6.2013 C91.4688,6.2013 91.7733,6.1653 91.7733,5.8983 L91.7733,4.3083 C91.7733,4.0053 91.4688,4.0098 91.4688,4.0098" id="Fill-27" fill="#1D1D1B"></path>
                <path d="M58.37205,4.52385 L56.63655,4.52385 C56.63655,4.52385 56.33055,4.52235 56.33055,4.82385 L56.33055,14.86335 C56.33055,15.83535 57.30255,15.89235 57.30255,15.89235 L63.05505,15.89235 L63.05505,24.40185 C63.05505,24.70335 63.35355,24.69735 63.35355,24.69735 L65.12055,24.69735 C65.12055,24.69735 65.41755,24.70335 65.41755,24.40185 L65.41755,14.47785 C65.41755,13.64985 64.64655,13.66335 64.64655,13.66335 L58.67205,13.66335 L58.67205,4.82385 C58.67205,4.52235 58.37205,4.52385 58.37205,4.52385" id="Fill-29" fill="#1D1D1B"></path>
                <path d="M74.7081,4.52385 L76.4421,4.52385 C76.4421,4.52385 76.7481,4.52235 76.7481,4.82385 L76.7481,14.86335 C76.7481,15.83535 75.7761,15.89235 75.7761,15.89235 L70.0251,15.89235 L70.0251,24.40185 C70.0251,24.70335 69.7266,24.69735 69.7266,24.69735 L67.9596,24.69735 C67.9596,24.69735 67.6611,24.70335 67.6611,24.40185 L67.6611,14.47785 C67.6611,13.64985 68.4336,13.66335 68.4336,13.66335 L74.4081,13.66335 L74.4081,4.82385 C74.4081,4.52235 74.7081,4.52385 74.7081,4.52385" id="Fill-31" fill="#1D1D1B"></path>
                <mask id="mask-2" fill="white">
                    <use xlink:href="#path-1"></use>
                </mask>
                <g id="Clip-34"></g>
                <path d="M62.7435,8.7795 L70.35,8.7795 L70.35,7.812 L62.7435,7.812 L62.7435,8.7795 Z M62.7435,6.4545 L70.35,6.4545 L70.35,5.487 L62.7435,5.487 L62.7435,6.4545 Z M62.7435,11.1105 L70.35,11.1105 L70.35,10.143 L62.7435,10.143 L62.7435,11.1105 Z M71.73,4.0215 L60.72,4.0215 C60.72,4.0215 60.4065,4.011 60.4065,4.3305 L60.4065,11.9625 C60.4065,11.9625 60.4095,12.576 61.059,12.576 L72.0525,12.576 C72.0525,12.576 72.699,12.576 72.699,11.985 L72.699,5.013 C72.699,5.013 72.651,4.0215 71.73,4.0215 L71.73,4.0215 Z" id="Fill-33" fill="#1D1D1B" mask="url(#mask-2)"></path>
                <path d="M75.8082,19.32465 L77.4552,24.28065 C77.4552,24.28065 77.5872,24.66015 77.1627,24.66015 L75.4902,24.66015 C75.1512,24.66015 75.0882,24.44115 75.0882,24.44115 L73.3437,19.32465 L75.8082,19.32465 Z" id="Fill-35" fill="#1D1D1B" mask="url(#mask-2)"></path>
                <path d="M58.46655,19.29975 C58.46655,19.29975 57.94155,22.53075 55.82505,22.63275 C55.82505,22.63275 55.52805,22.64025 55.52805,22.94175 L55.52805,24.38625 C55.52805,24.68775 55.82505,24.68625 55.82505,24.68625 C60.06855,24.68625 60.77955,19.33425 60.77955,19.33425 L58.46655,19.29975 Z" id="Fill-36" fill="#1D1D1B" mask="url(#mask-2)"></path>
                <path d="M77.2467,17.4423 L69.7497,17.4423 C69.7497,17.4423 69.4452,17.4378 69.4452,17.7408 L69.4452,19.3323 C69.4452,19.6338 69.7497,19.6338 69.7497,19.6338 L77.2467,19.6338 C77.5497,19.6338 77.5512,19.3323 77.5512,19.3323 L77.5512,17.7408 C77.5512,17.7408 77.5497,17.4423 77.2467,17.4423" id="Fill-37" fill="#1D1D1B" mask="url(#mask-2)"></path>
                <path d="M63.3357,17.4423 L55.8387,17.4423 C55.8387,17.4423 55.5342,17.4378 55.5342,17.7408 L55.5342,19.3323 C55.5342,19.6338 55.8387,19.6338 55.8387,19.6338 L63.3357,19.6338 C63.6387,19.6338 63.6402,19.3323 63.6402,19.3323 L63.6402,17.7408 C63.6402,17.7408 63.6387,17.4423 63.3357,17.4423" id="Fill-38" fill="#1D1D1B" mask="url(#mask-2)"></path>
                <path d="M43.5339,4.02 L41.3529,4.02 C41.3529,4.02 41.0544,4.005 41.0544,4.3065 L41.0544,6.2865 L43.8369,6.2865 L43.8369,4.3065 C43.8369,4.005 43.5339,4.02 43.5339,4.02" id="Fill-39" fill="#1D1D1B" mask="url(#mask-2)"></path>
                <path d="M37.08645,7.6206 C37.08645,7.6206 36.87345,13.2456 42.22395,18.1026 C46.09545,21.6186 49.79145,22.3326 52.27245,22.3911 C52.38945,22.3926 52.75695,22.3941 52.75695,22.3941 C52.75695,22.3941 53.06145,22.4121 53.06145,22.7151 L53.06145,24.3696 C53.06145,24.6711 52.75695,24.6621 52.75695,24.6621 L52.30395,24.6621 C50.08845,24.6516 45.26145,24.4221 39.98745,19.4886 C34.42245,14.2821 34.53945,7.7151 34.53945,7.7151 L37.08645,7.6206 Z" id="Fill-40" fill="#1D1D1B" mask="url(#mask-2)"></path>
                <path d="M47.94315,7.6206 C47.94315,7.6206 48.15615,13.2456 42.80565,18.1026 C38.95215,21.6036 35.27115,22.3266 32.79015,22.3896 C32.66115,22.3926 32.39565,22.3941 32.27265,22.3941 C32.27265,22.3941 31.96815,22.3956 31.96815,22.6986 L31.96815,24.3531 C31.96815,24.6546 32.27265,24.6621 32.27265,24.6621 L32.74365,24.6621 C34.96515,24.6516 39.78165,24.4086 45.04365,19.4886 C50.60715,14.2821 50.49015,7.7151 50.49015,7.7151 L47.94315,7.6206 Z" id="Fill-41" fill="#1D1D1B" mask="url(#mask-2)"></path>
                <path d="M53.0628,6.0063 L31.9848,6.0063 C31.9848,6.0063 31.6788,6.0033 31.6788,6.3048 L31.6788,7.8963 C31.6788,8.1978 31.9848,8.1978 31.9848,8.1978 L53.0628,8.1978 C53.3643,8.1978 53.3673,7.8963 53.3673,7.8963 L53.3673,6.3048 C53.3673,6.3048 53.3643,6.0063 53.0628,6.0063" id="Fill-42" fill="#1D1D1B" mask="url(#mask-2)"></path>
                <path d="M125.98935,22.45365 C125.98935,22.45365 125.59935,22.44465 125.51385,22.43565 C123.97035,22.29915 122.07585,21.48615 120.75735,20.47665 C119.51535,19.52265 117.24285,17.80665 115.94835,14.54115 C115.94835,14.54115 115.80735,14.07765 115.44285,14.07765 L113.56335,14.07765 C113.03385,14.07765 113.36985,14.61315 113.36985,14.61315 C115.00485,18.69315 116.87535,20.32965 118.68885,21.89415 C120.41985,23.38665 123.16485,24.49365 125.39835,24.59115 C125.50635,24.59715 125.97285,24.59865 125.97285,24.59865 C125.97285,24.59865 126.31485,24.61515 126.31485,24.28215 L126.31485,22.77015 C126.31485,22.45215 125.98935,22.45365 125.98935,22.45365" id="Fill-43" fill="#1D1D1B" mask="url(#mask-2)"></path>
                <path d="M123.76575,12.8955 C123.76575,12.8955 123.08475,16.7595 119.31375,19.713 C116.19975,22.1505 113.19675,22.356 111.94875,22.41 C111.78525,22.416 111.50175,22.4355 111.50175,22.659 L111.50175,24.363 C111.50175,24.5685 111.66075,24.633 111.94875,24.627 C113.18625,24.597 117.16725,24.5325 121.09725,21.366 C125.05575,18.1785 126.03075,14.634 126.30075,13.494 C126.35925,13.254 126.37875,13.173 126.37875,13.173 L126.37875,12.678 L123.76575,12.8955 Z" id="Fill-44" fill="#1D1D1B" mask="url(#mask-2)"></path>
                <path d="M104.63625,19.9179 L104.63625,18.1869 C104.63625,17.6934 104.96325,17.4219 104.96325,17.4219 L111.52125,11.5329 C111.52125,11.5329 111.89925,11.3259 111.89925,11.7564 L111.89925,13.6854 C111.89925,14.1084 111.58575,14.3664 111.58575,14.3664 L105.14775,20.1309 C105.14775,20.1309 104.63625,20.5524 104.63625,19.9179" id="Fill-45" fill="#1D1D1B" mask="url(#mask-2)"></path>
                <path d="M111.87255,7.1943 L104.96355,7.1943 C104.96355,7.1943 104.65905,7.1898 104.65905,7.4928 L104.65905,9.0828 C104.65905,9.3858 104.96355,9.3843 104.96355,9.3843 L111.87255,9.3843 C112.17405,9.3843 112.17555,9.0828 112.17555,9.0828 L112.17555,7.4928 C112.17555,7.4928 112.17405,7.1943 111.87255,7.1943" id="Fill-46" fill="#1D1D1B" mask="url(#mask-2)"></path>
                <path d="M109.36485,4.0053 L107.60835,4.0053 C107.60835,4.0053 107.30385,4.0053 107.30385,4.3083 L107.30385,22.4313 L105.48435,22.4313 C105.48435,22.4313 105.17985,22.4268 105.17985,22.7298 L105.17985,24.3198 C105.17985,24.6228 105.48435,24.6258 105.48435,24.6258 L107.60835,24.6258 L107.83935,24.6258 L108.38685,24.6258 C108.38685,24.6258 109.66785,24.6273 109.66785,23.1993 L109.66785,4.3083 C109.66785,4.0053 109.36485,4.0053 109.36485,4.0053" id="Fill-47" fill="#1D1D1B" mask="url(#mask-2)"></path>
                <path d="M118.51425,4.3422 C118.51425,4.0407 118.81875,4.0407 118.81875,4.0407 L120.92475,4.0407 C120.92475,4.0407 121.22775,4.0407 121.22775,4.3422 L121.22775,11.5647 C121.22775,11.8692 120.92475,11.8692 120.92475,11.8692 L118.81875,11.8692 C118.81875,11.8692 118.51425,11.8692 118.51425,11.5647 L118.51425,4.3422 Z" id="Fill-48" fill="#1D1D1B" mask="url(#mask-2)"></path>
                <path d="M126.56205,5.87595 L113.17155,5.87595 C113.17155,5.87595 112.86555,5.87145 112.86555,6.17445 L112.86555,7.76445 C112.86555,8.06745 113.17155,8.06745 113.17155,8.06745 L126.56205,8.06745 C126.86505,8.06745 126.86655,7.76445 126.86655,7.76445 L126.86655,6.17445 C126.86655,6.17445 126.86505,5.87595 126.56205,5.87595" id="Fill-49" fill="#1D1D1B" mask="url(#mask-2)"></path>
                <path d="M125.8062,11.31495 L113.5362,11.31495 C113.5362,11.31495 113.2332,11.31045 113.2332,11.61195 L113.2332,13.20345 C113.2332,13.50495 113.5362,13.50495 113.5362,13.50495 L126.0747,13.50495 C126.3762,13.50495 126.3792,13.20345 126.3792,13.20345 L126.3792,11.91945 C126.3792,11.91945 126.3792,11.31495 125.8062,11.31495" id="Fill-50" fill="#1D1D1B" mask="url(#mask-2)"></path>
            </g>
        </g>
    </g>
</svg>