<?xml version="1.0" encoding="UTF-8"?>
<svg width="66px" height="80px" viewBox="0 0 66 80" version="1.1" xmlns="http://www.w3.org/2000/svg" xmlns:xlink="http://www.w3.org/1999/xlink">
    <!-- Generator: Sketch 44.1 (41455) - http://www.bohemiancoding.com/sketch -->
    <title>sponser-hanyi</title>
    <desc>Created with Sketch.</desc>
    <defs>
        <polygon id="path-1" points="3.56577154e-16 10.1720446 3.56577154e-16 0.084 10.4971245 0.084 10.4971245 10.1720446 0 10.1720446"></polygon>
        <polygon id="path-3" points="18.3891841 24 0.690697158 24 0.690697158 1.39446418 18.3891841 1.39446418 18.3891841 24"></polygon>
        <polygon id="path-5" points="55.551 7.92705 55.551 0.28755 0.4584 0.28755 0.4584 7.92705 55.551 7.92705"></polygon>
    </defs>
    <g id="Page-1" stroke="none" stroke-width="1" fill="none" fill-rule="evenodd">
        <g id="Group-20">
            <rect id="Rectangle-4" x="0" y="0" width="66" height="80"></rect>
            <g id="spt-4" transform="translate(1.000000, 4.000000)">
                <g id="Group-3" transform="translate(0.000000, 0.269400)">
                    <mask id="mask-2" fill="white">
                        <use xlink:href="#path-1"></use>
                    </mask>
                    <g id="Clip-2"></g>
                    <path d="M6.1932,6.024 C6.9012,4.68 7.3257,3.09 7.6197,1.086 L4.5552,1.086 C4.5672,1.098 4.5672,1.1205 4.5672,1.1325 C4.8972,3.312 5.4507,4.881 6.1932,6.024 M5.7102,6.825 C4.8732,5.4465 4.4127,3.6795 4.2957,1.203 L4.2957,1.086 L3.4827,1.086 C3.2352,1.086 3.2472,0.756 3.4722,0.756 L7.5612,0.756 C7.5612,0.756 7.7022,0.5445 7.7952,0.39 C7.8912,0.2385 7.9257,0.189 8.1387,0.3315 L9.0807,0.9555 C9.1992,1.0395 9.1872,1.11 9.0342,1.227 C8.8812,1.3335 8.7162,1.4505 8.7162,1.4505 C8.2797,3.6675 7.6902,5.412 6.7587,6.7905 C7.4427,7.5675 8.2557,8.0985 9.1872,8.487 C9.5172,8.6175 10.0707,8.769 10.3887,8.817 C10.5312,8.841 10.5312,9.0045 10.4007,9.0405 C9.9657,9.159 9.6477,9.348 9.4002,9.606 C9.1752,9.8415 9.1632,9.948 9.0102,9.8535 C7.8447,9.1815 6.9117,8.463 6.1932,7.533 C5.2512,8.64 3.9897,9.489 2.2812,10.161 C2.1162,10.2195 2.0217,10.0305 2.1867,9.948 C3.7662,9.0165 4.8852,8.028 5.7102,6.825 M1.2312,0.084 C1.4682,0.084 1.9272,0.249 2.2107,0.3675 C2.6352,0.555 2.9652,0.8385 2.9877,1.215 C3.0117,1.5345 2.7987,1.8525 2.4702,1.887 C2.1042,1.911 1.9272,1.7565 1.8687,1.5225 C1.7862,1.263 1.7742,1.0395 1.6677,0.768 C1.4787,0.3075 1.1847,0.273 1.1502,0.189 C1.1262,0.1305 1.1727,0.084 1.2312,0.084 M0.1362,2.607 C0.3717,2.6175 0.8667,2.7825 1.1727,2.9355 C1.5867,3.1485 1.8462,3.4425 1.8567,3.843 C1.8687,4.1745 1.6797,4.503 1.3392,4.515 C0.9957,4.539 0.7857,4.326 0.7362,4.1385 C0.6777,3.879 0.7017,3.609 0.5967,3.324 C0.4422,2.9475 0.0897,2.805 0.0537,2.712 C0.0312,2.6535 0.0657,2.607 0.1362,2.607 M0.1002,7.356 C-0.0408,7.308 -0.0408,7.131 0.1482,7.155 C0.3492,7.1895 0.7017,7.2255 0.8082,7.2255 C0.9132,7.2135 1.0317,7.131 1.0917,7.014 C1.6092,6.129 2.8467,2.7705 3.4827,1.3575 C3.5532,1.203 3.7302,1.191 3.6492,1.4505 C3.2127,2.8545 2.3757,5.2935 1.9977,7.179 C1.8927,7.7205 1.9152,8.1105 2.0937,8.652 C2.1867,8.958 2.1987,9.075 2.1867,9.3345 C2.1627,9.582 1.9512,9.936 1.5027,9.936 C1.1847,9.936 0.9372,9.7365 0.9132,9.453 C0.8787,9.147 0.9372,8.757 0.9372,8.5455 C0.9612,7.545 0.2547,7.4145 0.1002,7.356" id="Fill-1" fill="#1D1D1B" mask="url(#mask-2)"></path>
                </g>
                <path d="M17.16495,0.43545 C17.44695,0.57795 17.76495,0.74295 18.04845,0.95445 C18.49695,1.28445 18.84945,1.71945 18.82545,2.25045 C18.80295,2.72145 18.42645,3.05145 18.07095,3.05145 C17.71845,3.05145 17.49495,2.68695 17.48295,2.47395 C17.45895,2.25045 17.54145,1.73145 17.43645,1.33245 C17.30595,0.83745 17.03445,0.61245 17.02245,0.54195 C17.01045,0.45945 17.09445,0.41145 17.16495,0.43545 M17.69595,7.68345 C16.69395,6.37545 16.08045,4.69095 15.78645,2.23845 C15.75045,1.94445 16.02195,1.88595 16.09245,2.15595 C16.61145,4.39695 17.31795,5.86845 18.22545,6.92895 C19.13295,5.46795 19.67595,3.68895 19.98195,1.59195 C20.00595,1.39095 20.02845,1.36695 20.18145,1.42545 C20.42895,1.51995 21.18345,1.83945 21.44295,1.96695 C21.58395,2.03745 21.51195,2.16795 21.43095,2.20395 C21.30195,2.26245 21.00795,2.38095 21.00795,2.38095 C20.44095,4.63245 19.80495,6.30495 18.83745,7.57845 C19.50945,8.17845 20.27595,8.62695 21.13545,9.02745 C21.45345,9.18045 22.00845,9.33345 22.32645,9.38145 C22.46745,9.39345 22.46745,9.58095 22.33845,9.61695 C21.90195,9.72195 21.57195,9.90045 21.31395,10.12245 C21.08895,10.32345 21.11295,10.39545 20.94645,10.29945 C19.85145,9.69945 18.95595,9.06195 18.22545,8.29545 C17.32845,9.20445 16.19745,9.88845 14.70045,10.42995 C14.47695,10.51245 14.44245,10.27695 14.59545,10.20645 C15.88095,9.54495 16.89345,8.70945 17.69595,7.68345 M14.11245,2.94645 C14.18295,2.98095 14.43045,3.11145 14.53695,3.18195 C14.68995,3.28695 14.64195,3.37095 14.51295,3.44145 L14.32395,3.55845 L14.32395,8.99145 C14.32395,9.38145 14.33595,9.87645 14.35995,10.13445 C14.37195,10.29945 14.33595,10.33545 14.20695,10.40595 C14.04195,10.50045 13.73595,10.58295 13.48845,10.57095 C13.34595,10.57095 13.27545,10.50045 13.28745,10.37145 C13.31145,10.11045 13.34595,9.40395 13.34595,9.00345 L13.34595,4.17195 C12.80445,4.96245 12.23895,5.67945 11.71995,6.15195 C11.56695,6.29295 11.43795,6.13995 11.54295,5.98695 C12.45045,4.73745 13.68795,1.90845 14.05395,0.17595 C14.07645,0.08295 14.11245,0.09345 14.18295,0.11745 L15.36195,0.68295 C15.57345,0.78945 15.44445,0.91845 15.37395,0.96645 C15.27945,1.02645 15.05595,1.11945 15.05595,1.11945 C14.83095,1.65045 14.49045,2.28495 14.11245,2.94645" id="Fill-4" fill="#1D1D1B"></path>
                <path d="M27.7353,0.0003 C27.9828,0.0123 28.3833,0.1293 28.6668,0.2598 C29.1378,0.4833 29.4543,0.8598 29.4543,1.2738 C29.4543,1.5918 29.2323,1.8618 28.9368,1.9323 L31.9068,1.9323 L32.1078,1.6968 C32.2953,1.4958 32.3073,1.4613 32.6388,1.7313 L33.5103,2.4513 C33.7338,2.6523 33.7803,2.8413 33.4518,2.8878 L32.8743,2.9583 C32.6268,2.9928 32.0958,3.2178 31.5888,3.6543 C31.5063,3.7233 31.3533,3.7473 31.4478,3.5238 C31.5423,3.2988 31.8363,2.5323 31.9188,2.2503 L25.3308,2.2503 C25.3548,2.3343 25.3548,2.4153 25.3668,2.4978 C25.4013,3.0993 25.2603,3.4998 24.8478,3.7938 C24.5538,4.0068 24.1518,3.9708 23.9283,3.7233 C23.7168,3.4653 23.7993,3.1233 23.9163,2.9688 C24.1173,2.7213 24.4833,2.4393 24.6123,2.2158 C24.8013,1.8978 24.7773,1.4133 24.8133,1.3668 C24.8598,1.3203 24.9183,1.3203 24.9648,1.3788 C25.0608,1.5198 25.1658,1.7088 25.2483,1.9323 L28.6188,1.9323 C28.3833,1.8618 28.2303,1.6383 28.1958,1.4958 C28.1373,1.2363 28.1718,0.9663 28.0533,0.6828 C27.9003,0.3303 27.6528,0.1758 27.6423,0.1293 C27.6303,0.0708 27.6648,0.0003 27.7353,0.0003 M29.2563,5.2683 L29.2788,5.2443 C29.4318,5.0553 30.0108,4.3008 30.1743,4.0653 L25.5303,4.0653 C25.2963,4.0653 25.3308,3.7593 25.5303,3.7593 L30.2343,3.7593 L30.4803,3.4998 C30.7038,3.2763 30.7038,3.3348 30.9288,3.5118 L31.6473,4.1253 C31.8363,4.2783 31.8018,4.3248 31.5543,4.3968 C31.2468,4.4778 31.1058,4.5363 30.7998,4.6908 C30.6348,4.7838 29.9268,5.1498 29.5383,5.3733 C29.6328,5.4453 29.5743,5.5383 29.4798,5.6088 C29.3733,5.6913 29.2203,5.7858 29.2203,5.7858 L29.2203,6.4578 L31.9188,6.4578 L32.3073,5.9748 C32.5428,5.6793 32.5788,5.6673 32.9088,5.9508 L33.6033,6.5643 C33.7338,6.6813 33.6633,6.7773 33.5793,6.7773 L29.2203,6.7773 L29.2203,9.8763 C29.2203,10.1823 29.1018,10.2993 28.8783,10.4298 C28.5948,10.5828 28.1598,10.6893 27.8403,10.6893 C27.7818,10.6893 27.7473,10.6893 27.7353,10.6293 L27.6648,10.3953 C27.4758,9.8643 27.0753,9.7818 26.6868,9.6753 C26.5098,9.6168 26.5323,9.4518 26.6988,9.4638 L27.2403,9.5103 C27.6888,9.5448 28.0533,9.5223 28.1253,9.4518 C28.1838,9.3933 28.2183,9.3093 28.2183,9.2268 L28.2183,6.7773 L23.7033,6.7773 C23.4573,6.7773 23.4693,6.4578 23.6808,6.4578 L28.2183,6.4578 L28.2183,5.9043 C28.2183,5.7978 28.1838,5.3493 28.1598,5.1018 C28.1478,4.9263 28.2303,4.9503 28.3593,4.9968 C28.5018,5.0313 28.9503,5.1723 29.2563,5.2683" id="Fill-6" fill="#1D1D1B"></path>
                <path d="M41.01555,5.79825 L41.01555,5.16075 C41.01555,5.01975 40.99155,4.66725 40.96905,4.49025 C40.94505,4.24275 40.98105,4.25475 41.13405,4.27725 L42.12405,4.50225 C42.40755,4.57275 42.38355,4.67925 42.21855,4.80825 C42.11055,4.89075 41.98305,4.98525 41.98305,4.98525 L41.98305,5.79825 L43.31355,5.79825 L43.71555,5.30325 C43.79655,5.18625 43.86705,5.07975 44.03355,5.20875 C44.36205,5.44575 44.64555,5.65575 44.86905,5.85675 C45.01155,5.96325 45.01155,6.10425 44.78805,6.10425 L41.98305,6.10425 L41.98305,7.75425 L43.91655,7.75425 C43.91655,7.75425 44.11455,7.47075 44.32755,7.22325 C44.42205,7.10625 44.49255,6.99975 44.65755,7.13025 C44.99955,7.36575 45.25905,7.56675 45.51855,7.82625 C45.64755,7.94325 45.67155,8.07375 45.43455,8.07375 L41.98305,8.07375 L41.98305,9.16875 C41.98305,9.55725 41.98305,10.05225 42.00555,10.32375 C42.01755,10.47675 41.98305,10.52325 41.86455,10.59375 C41.68755,10.68975 41.39355,10.76025 41.15805,10.76025 C41.00355,10.74825 40.94505,10.67775 40.95705,10.54725 C40.96905,10.28775 41.01555,9.59325 41.01555,9.18075 L41.01555,8.07375 L37.45755,8.07375 C37.21005,8.04825 37.21005,7.75425 37.45755,7.75425 L41.01555,7.75425 L41.01555,6.10425 L39.22455,6.10425 C39.22455,6.10425 38.97855,6.37575 38.81205,6.54075 C38.74155,6.61125 38.69355,6.64575 38.62305,6.56475 L38.10555,6.02175 C37.99905,5.90325 37.92705,5.83275 38.09355,5.75175 C38.27055,5.66775 38.37555,5.53875 38.47155,5.42025 C38.70555,5.10225 39.10755,4.44375 39.44805,3.73575 L37.85805,3.73575 C37.62105,3.71175 37.62105,3.41775 37.85805,3.41775 L39.59055,3.41775 C39.74205,3.08775 39.87255,2.75775 39.95505,2.46225 C40.03905,2.18025 40.03905,2.08575 40.21455,2.15625 C40.41555,2.22675 40.80405,2.38125 41.08755,2.49825 C41.34705,2.60475 41.44005,2.67525 41.21655,2.79225 C41.12205,2.84025 40.92255,2.93475 40.92255,2.93475 C40.86255,3.07575 40.79205,3.25275 40.70955,3.41775 L43.43205,3.41775 C43.43205,3.41775 43.61955,3.18225 43.82055,2.93475 C43.91655,2.81775 43.97505,2.70975 44.13855,2.84025 C44.46855,3.07575 44.75205,3.28725 44.97555,3.48825 C45.11655,3.59325 45.12855,3.73575 44.90505,3.73575 L40.54605,3.73575 C40.15605,4.51425 39.64905,5.38575 39.34305,5.79825 L41.01555,5.79825 Z M39.80205,0.03525 C40.02705,0.02325 40.42605,0.10575 40.70955,0.21075 C41.15805,0.37725 41.51055,0.71775 41.54655,1.10775 C41.55705,1.35525 41.41755,1.57875 41.20455,1.69725 L43.64355,1.69725 C43.64355,1.69725 43.85655,1.41375 44.05605,1.16625 C44.13855,1.06125 44.22255,0.95475 44.38605,1.07325 C44.71605,1.32075 44.99955,1.56825 45.23505,1.75575 C45.36405,1.87425 45.37605,2.00325 45.15255,2.00325 L37.36155,2.00325 L37.36155,2.62875 C37.36155,6.32925 37.32705,8.43825 35.39505,10.27575 C35.21805,10.44225 35.13555,10.32375 35.23005,10.14675 C36.49005,8.03625 36.37305,6.23475 36.33705,2.68725 C36.33705,2.20425 36.31305,1.59075 36.29055,1.35525 C36.27855,1.16625 36.30105,1.14225 36.46755,1.21275 L37.48155,1.69725 L40.60455,1.69725 C40.48455,1.62675 40.39155,1.52025 40.36755,1.42575 C40.28655,1.19025 40.29705,0.91875 40.16805,0.67125 C39.98955,0.34125 39.73155,0.21075 39.71955,0.16425 C39.69555,0.11775 39.73155,0.04725 39.80205,0.03525 L39.80205,0.03525 Z" id="Fill-8" fill="#1D1D1B"></path>
                <g id="Group-12" transform="translate(19.500000, 46.769400)">
                    <mask id="mask-4" fill="white">
                        <use xlink:href="#path-3"></use>
                    </mask>
                    <g id="Clip-11"></g>
                    <path d="M18.37635,10.00245 C18.24285,8.65545 17.09535,7.65795 15.76485,7.68195 L15.76335,7.66695 C13.43835,7.90545 11.41185,8.24595 9.65835,8.70045 C9.97035,8.16045 10.35435,7.60545 10.55985,7.30845 C11.43435,6.04095 12.63135,4.30695 11.34285,2.56245 C9.99885,0.74445 7.63635,1.48995 6.36735,1.89195 C5.39535,2.19945 4.46685,2.48745 3.59535,2.75595 C3.49185,2.77545 3.38985,2.79795 3.28635,2.82945 C1.86735,3.26295 1.06785,4.76595 1.50135,6.18495 C1.87935,7.41945 3.06735,8.18445 4.30485,8.07645 C3.97635,9.13245 3.92085,10.14345 4.13235,11.06745 C1.44885,12.95895 0.77085,15.27795 0.69735,16.96395 C0.61185,18.93945 1.35285,20.77245 2.78235,22.12545 C4.04835,23.32245 5.74635,24.00045 7.42935,24.00045 C7.63035,24.00045 7.83285,23.98995 8.03235,23.97195 C10.96785,23.67045 13.43685,21.44295 14.03835,18.55245 C14.25435,17.52045 14.39685,15.46545 12.95235,13.26495 C13.96785,13.08195 15.08085,12.92595 16.28685,12.80295 L16.28535,12.78795 C17.58735,12.54495 18.50985,11.34495 18.37635,10.00245 M8.98485,17.49945 C8.84535,18.16545 8.18385,18.76545 7.51785,18.83445 C7.13085,18.87045 6.66585,18.69195 6.33135,18.37395 C5.99535,18.05595 5.83485,17.65695 5.85435,17.18595 C5.89035,16.36545 6.48135,15.62295 7.57485,14.98245 C8.63085,15.84045 9.14535,16.73295 8.98485,17.49945" id="Fill-10" fill="#1D1D1B" mask="url(#mask-4)"></path>
                </g>
                <path d="M28.22895,33.6156 C28.22895,35.5071 26.69595,37.0401 24.80295,37.0401 C22.91145,37.0401 21.37845,35.5071 21.37845,33.6156 C21.37845,31.7241 22.91145,30.1911 24.80295,30.1911 C26.69595,30.1911 28.22895,31.7241 28.22895,33.6156" id="Fill-13" fill="#1D1D1B"></path>
                <path d="M48.53745,37.18695 C46.72095,35.30145 44.07495,35.14545 39.13695,36.56145 C38.55945,36.68745 35.60745,37.34445 19.67595,40.89345 C14.09745,42.13695 9.27945,43.20945 9.12945,43.24245 L9.03195,43.26495 C8.13645,43.48995 7.44645,43.60395 6.91695,43.65495 C6.47895,42.65295 5.51295,41.91795 4.34595,41.83845 C2.67345,41.71995 1.22295,42.98145 1.10745,44.65395 C1.06095,45.32145 1.23495,45.95145 1.56645,46.47645 C1.86345,47.02695 2.52495,47.84895 3.94245,48.30345 C4.60395,48.51495 5.35695,48.62145 6.20745,48.62145 C7.35195,48.62145 8.67645,48.42945 10.20045,48.04695 C10.56495,47.96745 12.63195,47.50695 20.74695,45.69945 C28.73445,43.92045 39.63645,41.49195 40.23945,41.35995 L40.42845,41.31345 C41.95245,40.87395 42.99345,40.67295 43.69395,40.59195 C44.12145,41.61795 45.09645,42.37245 46.28145,42.45645 C47.95395,42.57195 49.40445,41.31195 49.52145,39.63945 C49.58895,38.67645 49.19745,37.78995 48.53745,37.18695" id="Fill-15" fill="#1D1D1B"></path>
                <path d="M7.30215,45.07515 C7.18515,46.74765 5.73465,48.00915 4.06215,47.89215 C2.39115,47.77515 1.12965,46.32465 1.24665,44.65215 C1.36365,42.98115 2.81415,41.71965 4.48515,41.83665 C6.15765,41.95365 7.41915,43.40415 7.30215,45.07515" id="Fill-17" fill="#1D1D1B"></path>
                <path d="M49.66095,39.63765 C49.54545,41.31015 48.09345,42.57165 46.42245,42.45465 C44.74995,42.33765 43.48995,40.88715 43.60695,39.21465 C43.72245,37.54365 45.17295,36.28215 46.84545,36.39915 C48.51645,36.51615 49.77795,37.96665 49.66095,39.63765" id="Fill-19" fill="#1D1D1B"></path>
                <g id="Group-23" transform="translate(7.500000, 15.269400)">
                    <mask id="mask-6" fill="white">
                        <use xlink:href="#path-5"></use>
                    </mask>
                    <g id="Clip-22"></g>
                    <path d="M0.4584,0.28755 L0.4584,6.33555 L1.2969,6.33555 L1.2969,3.60555 L4.1694,3.60555 L4.1694,6.33555 L5.0064,6.33555 L5.0064,0.28755 L4.1694,0.28755 L4.1694,2.88405 L1.2969,2.88405 L1.2969,0.28755 L0.4584,0.28755 Z M10.0914,4.67355 C10.0854,4.78155 10.0779,4.87905 10.0659,4.96155 C10.0539,5.04555 10.0374,5.12205 10.0119,5.18955 C9.9864,5.25555 9.9519,5.32455 9.9069,5.39655 C9.7119,5.69805 9.4134,5.84955 9.0099,5.84955 C8.8314,5.84955 8.6859,5.82405 8.5749,5.77455 C8.4639,5.72505 8.3754,5.66205 8.3109,5.58555 C8.2464,5.51055 8.2014,5.43105 8.1774,5.34705 C8.1519,5.26305 8.1399,5.18955 8.1399,5.12205 C8.1399,4.90905 8.2029,4.74405 8.3319,4.62705 C8.4609,4.50855 8.6109,4.42455 8.7804,4.37205 C8.9499,4.31955 9.1194,4.28805 9.2874,4.27905 C9.4539,4.27005 9.5769,4.26555 9.6564,4.26555 C9.7509,4.26555 9.8319,4.26705 9.8979,4.27005 C9.9654,4.27305 10.0359,4.28055 10.1079,4.29255 C10.1034,4.43805 10.0974,4.56405 10.0914,4.67355 L10.0914,4.67355 Z M10.9119,6.33555 C10.8954,6.23055 10.8819,6.11805 10.8744,6.00105 C10.8654,5.88255 10.8609,5.77455 10.8579,5.67405 C10.8549,5.57355 10.8519,5.48805 10.8489,5.41455 C10.8474,5.34105 10.8459,5.29755 10.8459,5.27955 L10.8789,3.26955 C10.8789,3.17505 10.8714,3.07605 10.8579,2.97255 C10.8444,2.86905 10.8024,2.75355 10.7364,2.62605 C10.6794,2.51805 10.5999,2.42655 10.4919,2.34855 C10.3869,2.27055 10.2669,2.20605 10.1334,2.15505 C9.9984,2.10555 9.8559,2.06805 9.7014,2.04255 C9.5484,2.01705 9.3954,2.00505 9.2439,2.00505 C9.1329,2.00505 9.0144,2.01105 8.8884,2.02605 C8.7639,2.03955 8.6409,2.06505 8.5209,2.09655 C8.4009,2.13105 8.2854,2.17755 8.1729,2.23605 C8.0604,2.29455 7.9659,2.36805 7.8879,2.45655 C7.7649,2.60205 7.6884,2.74455 7.6584,2.88105 C7.6269,3.01755 7.6074,3.14055 7.5954,3.25455 L8.3814,3.25455 C8.3814,3.21405 8.3889,3.15405 8.4039,3.07305 C8.4174,2.99205 8.4519,2.91255 8.5074,2.83455 C8.5629,2.75655 8.6484,2.68905 8.7594,2.63055 C8.8704,2.56905 9.0279,2.54055 9.2289,2.54055 C9.3399,2.54055 9.4704,2.56155 9.6174,2.60055 C9.7659,2.63805 9.8784,2.71155 9.9564,2.81805 C9.9954,2.86305 10.0254,2.91255 10.0464,2.96805 C10.0644,3.02355 10.0779,3.08655 10.0869,3.15705 C10.0959,3.22755 10.1019,3.31155 10.1049,3.40755 C10.1079,3.50655 10.1079,3.61905 10.1079,3.74805 C9.9864,3.73605 9.8844,3.73005 9.8064,3.72705 C9.7284,3.72405 9.6384,3.72255 9.5394,3.72255 C9.4539,3.72255 9.3534,3.72555 9.2334,3.73155 C9.1134,3.73605 8.9859,3.74955 8.8524,3.76755 C8.7174,3.78855 8.5839,3.81705 8.4489,3.85155 C8.3154,3.88755 8.1924,3.93855 8.0814,3.99855 C7.9254,4.08855 7.7994,4.18755 7.7034,4.29555 C7.6089,4.40505 7.5354,4.51305 7.4829,4.62405 C7.4274,4.73205 7.3929,4.83855 7.3719,4.94505 C7.3539,5.05155 7.3434,5.14605 7.3434,5.23005 C7.3434,5.40255 7.3749,5.56605 7.4394,5.71605 C7.5039,5.86755 7.5999,5.99805 7.7244,6.11055 C7.8504,6.22155 8.0049,6.31005 8.1894,6.37455 C8.3739,6.43755 8.5869,6.46905 8.8254,6.46905 C8.9169,6.46905 9.0144,6.46305 9.1224,6.44805 C9.2334,6.43605 9.3459,6.40155 9.4629,6.34905 C9.5799,6.29505 9.6954,6.21855 9.8094,6.11805 C9.9264,6.01755 10.0299,5.88105 10.1244,5.70705 C10.1244,5.81955 10.1304,5.92605 10.1409,6.02505 C10.1529,6.12705 10.1724,6.23055 10.1994,6.33555 L10.9119,6.33555 Z M13.1574,6.33555 L13.9434,6.33555 L13.9434,3.91455 C13.9434,3.70155 13.9764,3.51855 14.0364,3.36255 C14.0979,3.20505 14.1789,3.07455 14.2794,2.96805 C14.3799,2.86305 14.4954,2.78355 14.6274,2.73405 C14.7579,2.68455 14.8974,2.65905 15.0429,2.65905 C15.1764,2.65905 15.3084,2.68305 15.4389,2.72955 C15.5709,2.77755 15.6864,2.84805 15.7884,2.94405 C15.8814,3.03855 15.9429,3.14655 15.9714,3.26955 C15.9999,3.39255 16.0134,3.52455 16.0134,3.66405 L16.0134,6.33555 L16.8174,6.33555 L16.8174,3.47955 C16.8174,3.15555 16.7559,2.89905 16.6329,2.70855 C16.5099,2.51805 16.3659,2.37555 16.1979,2.27655 C16.0299,2.18055 15.8619,2.11755 15.6909,2.08905 C15.5214,2.06205 15.3879,2.04705 15.2934,2.04705 C15.0534,2.04705 14.8524,2.07855 14.6889,2.14305 C14.5284,2.20755 14.3949,2.28105 14.2929,2.36505 C14.1879,2.44905 14.1114,2.53305 14.0574,2.61705 C14.0049,2.69955 13.9674,2.76405 13.9434,2.80905 L13.9359,2.13105 L13.1484,2.13105 L13.1574,2.61705 L13.1574,6.33555 Z M23.1834,2.13105 L22.3299,2.13105 L20.9904,5.44755 L19.6749,2.13105 L18.7869,2.13105 L20.5374,6.31905 L19.8999,7.92705 L20.7129,7.92705 L21.3159,6.36105 L23.1834,2.13105 Z M25.2204,6.33555 L26.0064,6.33555 L26.0064,2.12955 L25.2204,2.12955 L25.2204,6.33555 Z M25.1349,1.16805 L26.0829,1.16805 L26.0829,0.30555 L25.1349,0.30555 L25.1349,1.16805 Z M30.5304,6.33555 L31.3839,6.33555 L31.3839,3.58755 L33.9729,3.58755 L33.9729,2.88405 L31.3839,2.88405 L31.3839,1.00755 L34.1319,1.00755 L34.1319,0.28755 L30.5304,0.28755 L30.5304,6.33555 Z M36.6954,3.42105 C36.7854,3.20805 36.8964,3.04305 37.0314,2.92305 C37.1649,2.80305 37.3059,2.71905 37.4574,2.67105 C37.6089,2.62455 37.7484,2.60055 37.8759,2.60055 C38.2449,2.60055 38.5419,2.73555 38.7639,3.00555 C38.9889,3.27705 39.0999,3.67455 39.0999,4.19955 C39.0999,4.51755 39.0594,4.78455 38.9829,5.00055 C38.9049,5.21505 38.8044,5.38755 38.6844,5.51805 C38.5644,5.65005 38.4294,5.74605 38.2794,5.80455 C38.1279,5.86305 37.9779,5.89155 37.8264,5.89155 C37.6029,5.89155 37.4124,5.84505 37.2519,5.75505 C37.0944,5.66205 36.9624,5.53905 36.8604,5.38455 C36.7554,5.23155 36.6789,5.05605 36.6324,4.85805 C36.5859,4.65855 36.5619,4.45005 36.5619,4.23405 C36.5619,3.90405 36.6069,3.63255 36.6954,3.42105 L36.6954,3.42105 Z M35.8659,5.14605 C35.9499,5.41455 36.0789,5.64555 36.2514,5.84205 C36.4254,6.03705 36.6414,6.19305 36.9009,6.30705 C37.1604,6.42105 37.4634,6.47805 37.8099,6.47805 C38.1669,6.47805 38.4804,6.41805 38.7474,6.29805 C39.0159,6.17805 39.2394,6.01605 39.4149,5.81355 C39.5904,5.60805 39.7209,5.36955 39.8064,5.09655 C39.8934,4.82205 39.9369,4.53255 39.9369,4.22505 C39.9369,4.00605 39.9099,3.76905 39.8544,3.51255 C39.7989,3.25605 39.6924,3.01755 39.5394,2.79705 C39.3864,2.57505 39.1764,2.39205 38.9079,2.24355 C38.6394,2.09655 38.2959,2.02155 37.8759,2.02155 C37.4634,2.02155 37.1199,2.09205 36.8469,2.23155 C36.5724,2.37105 36.3534,2.54955 36.1884,2.76705 C36.0249,2.98605 35.9079,3.22755 35.8419,3.49605 C35.7744,3.76305 35.7399,4.02705 35.7399,4.28355 C35.7399,4.59105 35.7834,4.87905 35.8659,5.14605 L35.8659,5.14605 Z M42.0324,6.33555 L42.8184,6.33555 L42.8184,3.91455 C42.8184,3.70155 42.8499,3.51855 42.9114,3.36255 C42.9729,3.20505 43.0524,3.07455 43.1544,2.96805 C43.2549,2.86305 43.3704,2.78355 43.5009,2.73405 C43.6329,2.68455 43.7709,2.65905 43.9164,2.65905 C44.0514,2.65905 44.1819,2.68305 44.3139,2.72955 C44.4459,2.77755 44.5614,2.84805 44.6619,2.94405 C44.7564,3.03855 44.8179,3.14655 44.8464,3.26955 C44.8734,3.39255 44.8884,3.52455 44.8884,3.66405 L44.8884,6.33555 L45.6924,6.33555 L45.6924,3.47955 C45.6924,3.15555 45.6309,2.89905 45.5079,2.70855 C45.3849,2.51805 45.2409,2.37555 45.0729,2.27655 C44.9049,2.18055 44.7369,2.11755 44.5659,2.08905 C44.3949,2.06205 44.2629,2.04705 44.1684,2.04705 C43.9284,2.04705 43.7274,2.07855 43.5639,2.14305 C43.4034,2.20755 43.2699,2.28105 43.1679,2.36505 C43.0629,2.44905 42.9864,2.53305 42.9309,2.61705 C42.8784,2.69955 42.8409,2.76405 42.8184,2.80905 L42.8109,2.13105 L42.0234,2.13105 L42.0324,2.61705 L42.0324,6.33555 Z M47.6109,2.69205 L48.3564,2.69205 L48.3564,5.49855 C48.3564,5.84505 48.4419,6.08055 48.6159,6.20505 C48.7899,6.33105 49.0569,6.39405 49.4199,6.39405 C49.5654,6.39405 49.6914,6.38805 49.8009,6.37905 C49.9104,6.36705 50.0004,6.35505 50.0724,6.34455 L50.0724,5.73255 C50.0394,5.74455 49.9884,5.75505 49.9194,5.76105 C49.8489,5.77005 49.7739,5.77455 49.6959,5.77455 C49.5564,5.77455 49.4484,5.75655 49.3734,5.71605 C49.2984,5.67705 49.2414,5.63055 49.2054,5.57355 C49.1709,5.51805 49.1484,5.45655 49.1439,5.38905 C49.1379,5.32155 49.1349,5.26305 49.1349,5.21355 L49.1349,2.69205 L50.0724,2.69205 L50.0724,2.11455 L49.1349,2.11455 L49.1349,0.98355 L48.3564,1.23405 L48.3564,2.11455 L47.6109,2.11455 L47.6109,2.69205 Z M52.0929,5.08755 C52.0929,5.33805 52.1364,5.55255 52.2264,5.72805 C52.3149,5.90355 52.4364,6.04605 52.5909,6.15105 C52.7439,6.25755 52.9209,6.33405 53.1174,6.38055 C53.3154,6.43005 53.5209,6.45255 53.7339,6.45255 C53.9514,6.45255 54.1689,6.43455 54.3834,6.39405 C54.5979,6.35505 54.7989,6.28005 54.9819,6.16905 C55.1379,6.07305 55.2729,5.93205 55.3839,5.74155 C55.4949,5.55105 55.5519,5.33805 55.5519,5.10405 C55.5519,4.97055 55.5279,4.83405 55.4814,4.69755 C55.4319,4.56255 55.3509,4.43805 55.2339,4.32555 C55.1724,4.26855 55.1049,4.22055 55.0329,4.17855 C54.9594,4.13655 54.8634,4.09455 54.7419,4.05405 C54.6219,4.01055 54.4704,3.96705 54.2829,3.91905 C54.0954,3.87255 53.8569,3.81555 53.5659,3.74805 C53.5104,3.73155 53.4489,3.71205 53.3814,3.69405 C53.3139,3.67305 53.2509,3.64305 53.1894,3.60555 C53.1279,3.56655 53.0754,3.51405 53.0349,3.44955 C52.9914,3.38505 52.9719,3.30705 52.9719,3.21105 C52.9719,3.06105 53.0109,2.94405 53.0889,2.86455 C53.1669,2.78205 53.2554,2.72205 53.3574,2.68455 C53.4579,2.64405 53.5524,2.62305 53.6454,2.61705 C53.7384,2.61105 53.7984,2.60805 53.8254,2.60805 C53.8989,2.60805 53.9829,2.61405 54.0774,2.62605 C54.1734,2.63505 54.2619,2.66505 54.3504,2.71305 C54.4359,2.75955 54.5064,2.83005 54.5619,2.92305 C54.6189,3.01455 54.6444,3.13755 54.6384,3.29505 L55.4424,3.29505 C55.4424,3.20505 55.4379,3.11055 55.4289,3.01005 C55.4229,2.90955 55.3899,2.80155 55.3344,2.68455 C55.2729,2.56155 55.1829,2.45655 55.0659,2.37405 C54.9489,2.29005 54.8199,2.22255 54.6804,2.17305 C54.5409,2.12355 54.3954,2.08605 54.2439,2.06505 C54.0939,2.04105 53.9514,2.03055 53.8179,2.03055 C53.5719,2.03055 53.3484,2.06205 53.1474,2.12355 C52.9464,2.18505 52.7754,2.26905 52.6314,2.37855 C52.4904,2.48655 52.3779,2.62155 52.2984,2.77905 C52.2159,2.93955 52.1769,3.11355 52.1769,3.30405 C52.1769,3.52155 52.2189,3.70005 52.3044,3.83955 C52.3914,3.97905 52.5069,4.09305 52.6539,4.18305 C52.7994,4.27155 52.9704,4.34505 53.1684,4.40055 C53.3664,4.45605 53.5749,4.50855 53.7924,4.56105 C53.9484,4.59405 54.0864,4.62705 54.2034,4.66005 C54.3204,4.69455 54.4164,4.73205 54.4914,4.77255 C54.5664,4.81605 54.6219,4.87005 54.6594,4.93755 C54.6954,5.00505 54.7134,5.08755 54.7134,5.18955 C54.7134,5.33355 54.6699,5.46405 54.5799,5.58105 C54.4959,5.68905 54.3924,5.75805 54.2694,5.79555 C54.1464,5.83155 54.0039,5.84955 53.8434,5.84955 C53.6529,5.84955 53.4969,5.82405 53.3769,5.77455 C53.2569,5.72505 53.1624,5.66205 53.0934,5.58555 C53.0229,5.51055 52.9779,5.42955 52.9554,5.33805 C52.9314,5.25105 52.9224,5.16555 52.9224,5.08755 L52.0929,5.08755 Z" id="Fill-21" fill="#1D1D1B" mask="url(#mask-6)"></path>
                </g>
            </g>
        </g>
    </g>
</svg>