<?xml version="1.0" encoding="UTF-8"?>
<svg width="137px" height="80px" viewBox="0 0 137 80" version="1.1" xmlns="http://www.w3.org/2000/svg" xmlns:xlink="http://www.w3.org/1999/xlink">
    <!-- Generator: Sketch 44.1 (41455) - http://www.bohemiancoding.com/sketch -->
    <title>sponser-monotype</title>
    <desc>Created with Sketch.</desc>
    <defs>
        <polygon id="path-1" points="0.0003 29.95515 135.1035 29.95515 135.1035 0.00015 0.0003 0.00015"></polygon>
    </defs>
    <g id="Page-1" stroke="none" stroke-width="1" fill="none" fill-rule="evenodd">
        <g id="Group-21">
            <rect id="Rectangle-4" x="0" y="0" width="137" height="80"></rect>
            <g id="spt-5" transform="translate(1.000000, 30.000000)">
                <mask id="mask-2" fill="white">
                    <use xlink:href="#path-1"></use>
                </mask>
                <g id="Clip-2"></g>
                <path d="M135.1038,13.87005 C135.1038,9.18105 133.0188,6.15255 128.7858,6.15255 C123.9363,6.15255 121.5588,9.86655 121.5588,14.91105 C121.5588,20.18655 124.5213,23.11605 129.2088,23.11605 C131.4903,23.11605 133.1823,22.75905 134.6148,22.10805 L134.1918,20.15355 C132.7593,20.57805 131.5863,20.80605 129.6663,20.80605 C126.4743,20.80605 124.3578,18.55905 124.3578,15.07455 L124.3578,14.84655 L134.9403,14.84655 L135.1038,13.87005 Z M132.3033,12.82905 L124.4883,12.82905 C124.7493,10.58205 125.9223,8.30205 128.4933,8.30205 C130.8708,8.30205 132.1398,9.99555 132.3033,12.82905 L132.3033,12.82905 Z M119.2503,14.03205 C119.2503,8.23755 116.5143,6.12105 112.7703,6.12105 C110.9133,6.12105 109.2543,6.64305 108.0168,7.45755 L107.5608,6.44655 L105.3153,6.44655 L105.3153,29.95455 L108.0168,29.30355 L108.0168,22.59555 C108.9603,22.95405 110.0688,23.11605 110.9793,23.11605 C115.0158,23.11605 119.2503,20.70855 119.2503,14.03205 L119.2503,14.03205 Z M116.4483,14.32605 C116.4483,18.88455 114.0078,20.93655 110.9478,20.93655 C109.9713,20.93655 108.8298,20.70855 108.0168,20.44755 L108.0168,9.24705 C109.2213,8.79105 110.6223,8.46555 111.7938,8.46555 C114.6588,8.46405 116.4483,9.76905 116.4483,14.32605 L116.4483,14.32605 Z M98.1453,22.75905 L103.8123,6.44655 L100.9128,6.44655 L97.5273,16.83405 C97.2018,17.77755 96.6813,19.50255 96.4203,20.41455 C96.1608,19.50255 95.5728,17.77755 95.2488,16.86555 L91.3743,6.44805 L88.4103,6.44805 L94.7268,22.79055 L95.4438,22.79055 C93.9138,26.24355 92.6433,27.70905 89.9418,27.70905 C89.2593,27.70905 88.2153,27.57855 87.5658,27.34905 L87.1083,29.40105 C87.8238,29.66205 89.0298,29.95605 90.3318,29.95605 C95.1843,29.95605 96.6483,26.99205 98.1453,22.75905 L98.1453,22.75905 Z M83.5458,23.08455 C85.1148,23.08455 86.5713,22.70955 87.6243,22.26705 L87.3018,20.46255 C86.7138,20.59155 85.6953,20.80605 84.8478,20.80605 C83.5458,20.80605 82.6983,20.28405 82.6983,18.49305 L82.6983,8.59455 L86.7363,8.59455 L87.0618,6.44655 L82.6668,6.44655 L82.6008,1.79055 L80.6148,2.27805 L80.0283,6.31755 L77.2938,7.03155 L77.2938,8.53005 L79.9968,8.56305 L79.9968,19.34055 C79.9968,21.97755 81.3963,23.08455 83.5458,23.08455 L83.5458,23.08455 Z M76.1538,14.35755 C76.1538,9.27855 73.9068,6.15255 68.9913,6.15255 C63.6843,6.15255 60.8508,9.47355 60.8508,14.91105 C60.8508,19.99155 63.0978,23.11755 68.0133,23.11755 C73.3218,23.11605 76.1538,19.79505 76.1538,14.35755 L76.1538,14.35755 Z M73.3533,14.35755 C73.3533,18.13605 71.8878,20.93655 68.4693,20.93655 C65.2143,20.93655 63.6513,18.88455 63.6513,14.91105 C63.6513,11.13555 65.1813,8.30205 68.5998,8.30205 C71.8878,8.30205 73.3533,10.38705 73.3533,14.35755 L73.3533,14.35755 Z M55.2648,22.79055 L57.9663,22.79055 L57.9663,11.16705 C57.9663,7.78155 55.8513,6.12105 52.9863,6.12105 C50.7063,6.12105 48.8508,7.13055 47.4498,7.97655 L47.0268,6.44655 L44.7813,6.44655 L44.7813,22.79055 L47.4843,22.79055 L47.4843,9.80055 C48.9153,9.08505 50.5443,8.46405 52.1388,8.46405 C54.0603,8.46405 55.2648,9.37605 55.2648,11.49405 L55.2648,22.79055 Z M41.8533,14.35755 C41.8533,9.27855 39.6063,6.15255 34.6908,6.15255 C29.3838,6.15255 26.5503,9.47355 26.5503,14.91105 C26.5503,19.99155 28.7973,23.11755 33.7128,23.11755 C39.0213,23.11605 41.8533,19.79505 41.8533,14.35755 L41.8533,14.35755 Z M39.0543,14.35755 C39.0543,18.13605 37.5873,20.93655 34.1703,20.93655 C30.9138,20.93655 29.3508,18.88455 29.3508,14.91105 C29.3508,11.13555 30.8823,8.30205 34.2993,8.30205 C37.5873,8.30205 39.0543,10.38705 39.0543,14.35755 L39.0543,14.35755 Z M21.2613,22.79055 L24.0618,22.79055 L22.6293,-0.00045 L18.8523,-0.00045 L13.1223,16.37805 C12.6663,17.71305 12.3393,18.75405 11.9823,20.02455 C11.7873,19.04655 11.3958,17.48355 11.1033,16.57305 L5.5698,-0.00045 L1.6938,-0.00045 L0.0003,22.79055 L2.7018,22.79055 L3.5823,8.46405 C3.7113,6.34905 3.8748,4.07055 3.8748,2.66955 C4.2648,4.03605 4.9173,6.05655 5.2743,7.16205 L10.4853,22.79055 L13.4793,22.79055 L18.8208,7.29255 C19.4058,5.59905 19.7958,4.07055 20.1873,2.63805 C20.1873,4.00455 20.3178,6.86955 20.3823,8.07555 L21.2613,22.79055 Z" id="Fill-1" fill="#1D1D1B" mask="url(#mask-2)"></path>
            </g>
        </g>
    </g>
</svg>