<?xml version="1.0" encoding="UTF-8"?>
<svg width="93px" height="80px" viewBox="0 0 93 80" version="1.1" xmlns="http://www.w3.org/2000/svg" xmlns:xlink="http://www.w3.org/1999/xlink">
    <!-- Generator: Sketch 44.1 (41455) - http://www.bohemiancoding.com/sketch -->
    <title>sponser-founder</title>
    <desc>Created with Sketch.</desc>
    <defs>
        <polygon id="path-1" points="21.633 10.94325 21.633 0.6405 0.699 0.6405 0.699 21.246 21.633 21.246 21.633 10.94325"></polygon>
        <polygon id="path-3" points="0 36.8598 90.633 36.8598 90.633 1.5003 0 1.5003"></polygon>
    </defs>
    <g id="Page-1" stroke="none" stroke-width="1" fill="none" fill-rule="evenodd">
        <g id="Group-18">
            <rect id="Rectangle-4" x="0" y="0" width="93" height="80"></rect>
            <g id="spt-2" transform="translate(1.000000, 21.000000)">
                <g id="Group-3" transform="translate(69.000000, 0.859800)">
                    <mask id="mask-2" fill="white">
                        <use xlink:href="#path-1"></use>
                    </mask>
                    <g id="Clip-2"></g>
                    <path d="M21.633,18.6555 L16.269,18.6555 L16.269,21.246 L12.5775,21.246 L12.5775,18.663 L6.1845,18.663 L6.1845,15.7635 L12.5055,15.7635 L12.5055,14.067 L7.1775,14.067 C6.9855,12.3345 7.008,10.719 8.175,9.2235 C7.62,9.1905 7.242,9.171 6.816,9.1455 L6.816,6.51 C7.398,6.51 7.9575,6.4545 8.502,6.5235 C9.2025,6.612 9.597,6.3465 9.7815,5.6895 C9.828,5.517 9.9165,5.358 10.008,5.139 L6.1275,5.139 C6.1275,5.4705 6.1395,5.7885 6.126,6.1035 C5.9865,9.0735 5.9415,12.0525 5.6685,15.0105 C5.46,17.2665 4.5,19.2885 2.9745,21.1095 C2.199,20.1525 1.4565,19.2375 0.699,18.3045 C2.2875,15.5745 2.4345,12.585 2.4345,9.57 C2.4345,7.3125 2.433,5.058 2.397,2.802 C2.388,2.265 2.5185,2.0715 3.09,2.0805 C5.136,2.115 7.1835,2.094 9.231,2.094 L10.041,2.094 L10.041,0.639 L14.091,0.639 C14.13,1.0965 14.1675,1.5525 14.208,2.037 L21.633,2.037 L21.633,5.109 C19.494,5.1075 17.355,5.1045 15.216,5.103 C14.13,5.1015 13.884,5.3265 13.7145,6.528 L21.3285,6.528 L21.3285,9.18 L20.5335,9.18 C17.8365,9.18 15.138,9.174 12.4425,9.189 C12.2175,9.189 11.8785,9.2595 11.79,9.414 C11.4705,9.966 11.2335,10.5675 10.938,11.214 L12.576,11.214 L12.576,9.9105 L16.2075,9.9105 C16.2375,10.3695 16.2645,10.797 16.296,11.2755 L21.021,11.2755 L21.021,14.0565 L16.2945,14.0565 L16.2945,15.723 L21.633,15.723 L21.633,18.6555 Z" id="Fill-1" fill="#000000" mask="url(#mask-2)"></path>
                </g>
                <mask id="mask-4" fill="white">
                    <use xlink:href="#path-3"></use>
                </mask>
                <g id="Clip-5"></g>
                <path d="M51.0405,7.4253 L63.519,7.4253 L63.519,6.0168 L51.0405,6.0168 L51.0405,7.4253 Z M59.352,1.4988 L59.352,2.9538 L62.5335,2.9538 C63.8595,2.9538 65.187,2.9583 66.5115,2.9523 C66.8445,2.9508 67.1025,2.9688 67.0995,3.4188 C67.086,5.1618 67.095,6.9048 67.095,8.7393 L63.708,8.7393 C64.1085,9.9348 63.3105,10.3458 62.5785,10.8183 C61.7775,11.3358 60.987,11.8683 60.2175,12.4293 C60.009,12.5808 59.8905,12.8523 59.7315,13.0683 C59.769,13.1313 59.8065,13.1943 59.8455,13.2573 L60.5805,13.2573 C62.652,13.2573 64.7235,13.2798 66.7935,13.2438 C67.392,13.2348 67.557,13.4328 67.5255,13.9983 C67.4835,14.7348 67.515,15.4728 67.515,16.2873 L63.672,16.2873 L59.79,16.2873 C59.79,16.9953 59.7945,17.6628 59.79,18.3288 C59.7735,20.7648 58.5075,22.0713 56.0655,22.1508 C55.2285,22.1778 54.3885,22.1403 53.553,22.1703 C53.1645,22.1838 52.974,22.0758 52.8705,21.6783 C52.62,20.7198 52.317,19.7733 51.999,18.6978 C52.881,18.6978 53.6595,18.6993 54.4365,18.6978 C55.7595,18.6948 55.98,18.4773 55.9875,17.1678 C55.989,16.9128 55.989,16.6593 55.989,16.3293 L47.136,16.3293 L47.136,13.2948 L55.9995,13.2948 C55.548,11.4393 57.354,11.3898 58.1715,10.3848 L50.859,10.3848 L50.859,8.7723 L47.529,8.7723 L47.529,2.9643 L55.227,2.9643 C55.254,2.4168 55.278,1.9578 55.3005,1.4988 L59.352,1.4988 Z" id="Fill-4" fill="#000000" mask="url(#mask-4)"></path>
                <path d="M12.84765,1.49925 L12.84765,3.89025 L20.93415,3.89025 L20.93415,7.17225 L8.71815,7.17225 L8.71815,10.05375 L9.41115,10.05375 C12.39015,10.05375 15.37065,10.06725 18.34815,10.04175 C18.90465,10.03725 19.14165,10.15725 19.11015,10.76325 C18.96465,13.57275 18.92715,16.38975 18.69465,19.19175 C18.54615,20.99325 17.22315,22.10775 15.41115,22.18875 C14.08665,22.24725 12.75765,22.22325 11.43315,22.19775 C11.25015,22.19325 10.95765,21.99825 10.90965,21.83475 C10.63665,20.92725 10.42665,20.00175 10.16715,18.97725 C11.34615,18.97725 12.45015,18.98025 13.55565,18.97575 C14.79315,18.97125 15.02265,18.76875 15.09465,17.54175 C15.17565,16.17525 15.23115,14.80875 15.30315,13.35525 C14.99265,13.33875 14.77215,13.31475 14.55165,13.31475 C12.66615,13.31175 10.78065,13.33425 8.89665,13.29825 C8.35965,13.28775 8.19015,13.48575 8.08515,13.97775 C7.31115,17.59125 5.00865,20.90175 2.15715,22.53225 C1.44165,21.66975 0.72015,20.80125 0.00015,19.93425 L0.00015,19.79325 C2.12715,18.31875 3.75165,16.43925 4.33965,13.87125 C4.65765,12.48075 4.75815,11.03625 4.89315,9.60975 C4.96665,8.81775 4.90665,8.01225 4.90665,7.14675 L0.57615,7.14675 L0.57615,3.88575 L8.65815,3.88575 L8.65815,1.49925 L12.84765,1.49925 Z" id="Fill-6" fill="#000000" mask="url(#mask-4)"></path>
                <path d="M90.633,36.6921 C89.6625,36.7191 88.692,36.7581 87.72,36.7701 C86.5845,36.7851 85.449,36.7746 84.261,36.7746 L84.261,27.3351 L90.633,27.3351 L90.633,29.4291 L86.592,29.4291 L86.592,30.9921 L90.0015,30.9921 L90.0015,33.0681 L86.583,33.0681 L86.583,34.7361 L90.633,34.7361 L90.633,36.6921 Z" id="Fill-7" fill="#000000" mask="url(#mask-4)"></path>
                <path d="M43.52955,5.89965 L36.49005,5.89965 L36.49005,10.19265 L42.72105,10.19265 L42.72105,13.43115 L36.50205,13.43115 L36.50205,18.68115 L44.23455,18.68115 L44.23455,21.85665 L23.78655,21.85665 L23.78655,18.71865 L25.96755,18.71865 L25.96755,9.64815 C27.12255,9.64815 28.21155,9.62415 29.29455,9.67815 C29.42955,9.68415 29.65155,10.09365 29.65455,10.31715 C29.68005,12.80565 29.66955,15.29715 29.66955,17.78565 L29.66955,18.64965 L32.49405,18.64965 L32.49405,5.91315 L24.48255,5.91315 L24.48255,2.70915 L43.52955,2.70915 L43.52955,5.89965 Z" id="Fill-8" fill="#000000" mask="url(#mask-4)"></path>
                <path d="M30.70035,27.3567 L33.03135,27.3567 L33.03135,36.7662 C32.43435,36.7662 31.83285,36.8007 31.24035,36.7452 C31.06635,36.7287 30.87435,36.4887 30.76185,36.3072 C30.01185,35.1042 29.28285,33.8877 28.54485,32.6787 C28.42935,32.4912 28.30035,32.3127 28.07535,31.9737 L28.07535,36.7122 L25.73235,36.7122 L25.73235,27.3357 C26.33685,27.3357 26.93535,27.3042 27.52485,27.3552 C27.69885,27.3702 27.89835,27.5907 28.00785,27.7662 C28.87785,29.1642 29.72835,30.5742 30.70035,32.1687 L30.70035,27.3567 Z" id="Fill-9" fill="#000000" mask="url(#mask-4)"></path>
                <path d="M54.6183,31.33365 C55.3788,31.15065 56.2173,31.62915 56.7108,30.82665 C56.8608,30.58215 56.8338,30.04215 56.6583,29.81865 C56.1093,29.12265 55.3248,29.50065 54.6183,29.43315 L54.6183,31.33365 Z M57.7278,32.87715 C58.3743,34.13265 59.0178,35.38215 59.7303,36.76815 C58.8273,36.76815 58.0488,36.79365 57.2733,36.74715 C57.1113,36.73815 56.9118,36.49365 56.8188,36.31215 C56.3973,35.48565 55.9803,34.65465 55.6188,33.80115 C55.4163,33.32415 55.1523,33.14715 54.6108,33.35115 L54.6108,36.71715 L52.2753,36.71715 L52.2753,27.39765 C53.8023,27.39765 55.3143,27.28215 56.7993,27.43215 C58.0593,27.55815 58.8828,28.44165 59.1483,29.69865 C59.4048,30.92115 59.0328,31.94715 57.9648,32.67165 C57.8898,32.72265 57.8268,32.79165 57.7278,32.87715 L57.7278,32.87715 Z" id="Fill-10" fill="#000000" mask="url(#mask-4)"></path>
                <path d="M37.5654,34.6677 C37.9239,34.6677 38.1999,34.6797 38.4744,34.6662 C39.4089,34.6227 39.7899,34.2747 39.8214,33.3537 C39.8529,32.4282 39.8364,31.4997 39.8139,30.5742 C39.7989,29.9277 39.4329,29.5287 38.8044,29.4402 C38.4039,29.3832 37.9899,29.4297 37.5654,29.4297 L37.5654,34.6677 Z M35.2224,27.3477 C36.5979,27.3477 37.9014,27.2982 39.1989,27.3612 C40.8429,27.4392 42.0714,28.6842 42.1539,30.3327 C42.2109,31.4697 42.2064,32.6142 42.1569,33.7512 C42.0924,35.1882 41.2224,36.3687 39.8139,36.5847 C38.3154,36.8172 36.7734,36.7632 35.2224,36.8352 L35.2224,27.3477 Z" id="Fill-11" fill="#000000" mask="url(#mask-4)"></path>
                <path d="M10.2285,31.9914 C10.2585,32.5329 10.2705,33.1149 10.329,33.6909 C10.395,34.3449 10.827,34.6599 11.445,34.7304 C12.084,34.8024 12.687,34.4604 12.729,33.8349 C12.8085,32.6169 12.8145,31.3869 12.7305,30.1689 C12.6855,29.5074 12.1095,29.2074 11.388,29.2794 C10.743,29.3454 10.38,29.7129 10.3215,30.3564 C10.275,30.8874 10.26,31.4214 10.2285,31.9914 M7.8585,32.0364 C7.944,31.2294 7.9785,30.4119 8.1255,29.6169 C8.3475,28.4094 9.0855,27.5664 10.296,27.3549 C11.121,27.2094 12.0165,27.2019 12.837,27.3609 C14.1285,27.6099 14.94,28.5294 15.0435,29.8284 C15.1605,31.2549 15.1905,32.7114 15.03,34.1304 C14.8035,36.1314 12.939,37.1979 10.7205,36.7644 C9.015,36.4329 8.124,35.4324 7.9815,33.6459 C7.941,33.1134 7.9755,32.5764 7.9755,32.0424 C7.9365,32.0394 7.8975,32.0379 7.8585,32.0364" id="Fill-12" fill="#000000" mask="url(#mask-4)"></path>
                <polygon id="Fill-13" fill="#000000" mask="url(#mask-4)" points="50.36595 36.73605 43.99545 36.73605 43.99545 32.05155 43.99545 27.39255 50.36295 27.39255 50.36295 29.40105 46.39845 29.40105 46.39845 30.95505 49.79295 30.95505 49.79295 33.03855 46.37745 33.03855 46.37745 34.64805 50.36595 34.64805"></polygon>
                <path d="M16.8063,27.3669 L19.1163,27.3669 C19.1163,28.8099 19.1148,30.2214 19.1163,31.6329 C19.1163,32.2614 19.0998,32.8899 19.1253,33.5169 C19.1568,34.2819 19.5798,34.7154 20.2728,34.7454 C21.0138,34.7754 21.5298,34.3824 21.5553,33.5889 C21.6108,31.8249 21.5883,30.0579 21.5988,28.2909 C21.6003,27.9954 21.5988,27.7014 21.5988,27.3699 L23.8458,27.3699 C23.8698,27.4539 23.9163,27.5364 23.9163,27.6204 C23.9193,29.6199 23.9613,31.6209 23.9043,33.6189 C23.8533,35.4039 22.5123,36.7104 20.7483,36.8214 C18.6813,36.9519 17.1438,35.8974 16.8258,34.0704 C16.7283,33.5049 16.7718,32.9124 16.7688,32.3334 C16.7643,30.7509 16.7703,29.1699 16.7718,27.5874 C16.7718,27.5424 16.7853,27.4974 16.8063,27.3669" id="Fill-14" fill="#000000" mask="url(#mask-4)"></path>
                <path d="M78.6198,31.29555 C79.3833,31.18905 80.2038,31.61205 80.7048,30.81705 C80.8503,30.58605 80.8353,30.08955 80.6778,29.86605 C80.1498,29.11155 79.3488,29.51355 78.6198,29.42355 L78.6198,31.29555 Z M78.6003,33.44955 L78.6003,36.70455 L76.2843,36.70455 L76.2843,27.26805 C77.8923,27.34155 79.5198,27.27855 81.0978,27.52605 C82.4718,27.74205 83.3073,29.15505 83.2128,30.57255 C83.1153,32.00955 82.0593,33.15855 80.6283,33.33255 C79.9893,33.41055 79.3383,33.40905 78.6003,33.44955 L78.6003,33.44955 Z" id="Fill-15" fill="#000000" mask="url(#mask-4)"></path>
                <path d="M2.89845,29.3883 L2.89845,31.0248 C3.84495,31.0248 4.76895,31.0503 5.68845,31.0128 C6.21645,30.9903 6.39795,31.1733 6.35595,31.6908 C6.31845,32.1453 6.34845,32.6058 6.34845,33.1458 L2.85195,33.1458 L2.85195,36.7308 L0.58095,36.7308 L0.58095,27.3708 L6.90795,27.3708 L6.90795,29.3883 L2.89845,29.3883 Z" id="Fill-16" fill="#000000" mask="url(#mask-4)"></path>
                <path d="M72.54435,36.7287 L70.27935,36.7287 C70.27935,35.6232 70.30185,34.5612 70.26585,33.4992 C70.25385,33.1212 70.16535,32.7147 70.00185,32.3757 C69.20985,30.7272 68.38185,29.0967 67.50435,27.3342 C68.32335,27.3342 69.02985,27.3087 69.73335,27.3552 C69.89685,27.3657 70.10535,27.5922 70.18635,27.7692 C70.60785,28.6737 70.99485,29.5917 71.46135,30.6612 C71.88135,29.7132 72.29385,28.9002 72.59835,28.0497 C72.80535,27.4647 73.11135,27.2562 73.71735,27.3222 C74.24385,27.3777 74.78085,27.3327 75.42585,27.3327 C74.94735,28.2942 74.56785,29.2167 74.05035,30.0537 C72.90285,31.9122 72.34335,33.8847 72.61635,36.0732 C72.63735,36.2322 72.61635,36.3972 72.60735,36.5607 C72.60585,36.6027 72.57585,36.6447 72.54435,36.7287" id="Fill-17" fill="#000000" mask="url(#mask-4)"></path>
                <polygon id="Fill-18" fill="#000000" mask="url(#mask-4)" points="64.82325 36.73605 62.46975 36.73605 62.46975 29.42805 60.21525 29.42805 60.21525 27.38655 67.10175 27.38655 67.10175 29.39055 64.82325 29.39055"></polygon>
            </g>
        </g>
    </g>
</svg>