<?xml version="1.0" encoding="UTF-8"?>
<svg width="78px" height="80px" viewBox="0 0 78 80" version="1.1" xmlns="http://www.w3.org/2000/svg" xmlns:xlink="http://www.w3.org/1999/xlink">
    <!-- Generator: Sketch 44.1 (41455) - http://www.bohemiancoding.com/sketch -->
    <title>sponser-makefont</title>
    <desc>Created with Sketch.</desc>
    <defs></defs>
    <g id="Page-1" stroke="none" stroke-width="1" fill="none" fill-rule="evenodd">
        <g id="Group-17">
            <rect id="Rectangle-4" x="0" y="0" width="78" height="80"></rect>
            <g id="spt-1" transform="translate(1.000000, 17.000000)" fill="#1D1D1B">
                <path d="M57.709,4.104 L57.709,4.104 L57.709,6.6795 L75.541,2.574 L75.541,0 L57.709,4.104 Z M18.0535,36.1065 L18.0535,36.1065 L18.0535,38.919 L0.262,43.014 L0.262,40.2015 L0.262,40.2 L0.262,29.16 L3.8695,28.329 L3.8695,39.372 L18.0535,36.1065 Z M14.071,31.9905 L14.071,31.9905 L9.2905,33.09 L9.2905,30.0435 L14.071,28.944 L14.071,31.9905 Z M17.491,25.206 L17.491,25.206 L17.491,25.194 L5.809,27.8835 L5.809,27.8955 L5.797,27.8985 L5.797,36.897 L5.809,36.894 L5.809,36.942 L17.491,34.254 L17.491,34.2045 L17.512,34.2 L17.512,25.2015 L17.491,25.206 Z M3.8755,18.123 L3.8755,18.123 L3.8755,20.7585 L0.25,21.5925 L0.25,18.957 L3.8755,18.123 Z M27.871,18.6585 L27.871,18.6585 L27.871,18.66 L19.681,20.5455 L19.681,23.1375 L27.871,21.2535 L27.871,25.581 L19.5535,27.4965 L19.5535,30.3315 L27.3655,28.5345 L23.653,37.545 L27.6955,36.6135 L31.3675,27.6135 L37.4815,26.205 L37.4815,23.3685 L31.7185,24.696 L31.7185,17.7735 L27.871,18.6585 Z M5.5555,15.9675 L5.5555,15.9675 L8.548,15.279 L8.548,17.0685 L10.006,16.7325 L10.006,14.8995 L13.5415,14.085 L13.5415,15.9195 L17.7055,14.9595 L17.7055,17.5725 L13.5415,18.5325 L13.5415,21.069 L17.752,20.1 L17.752,22.98 L5.5375,25.7925 L5.5375,22.911 L10.006,21.8835 L10.006,19.3455 L5.7235,20.3325 L5.7235,20.3205 L5.5555,20.358 L5.5555,15.9675 Z M66.337,15.222 L66.337,15.222 L66.334,13.2315 L61.6105,14.319 L61.627,16.3065 L66.337,15.222 Z M3.8755,23.274 L3.8755,23.274 L3.8755,25.9725 L0.25,26.808 L0.25,24.1095 L3.8755,23.274 Z M71.992,7.4355 L71.992,7.4355 L61.5715,9.8325 L61.588,11.865 L71.9635,9.4755 L71.992,7.4355 Z M75.307,4.1625 L75.307,4.1625 L75.307,11.01 L75.307,11.166 L69.5575,12.489 L69.5605,14.4795 L75.403,13.1355 L75.403,15.993 L67.2655,17.8665 L67.051,20.034 L75.2695,18.1425 L75.2695,18.156 L75.325,18.1425 L75.331,25.707 L72.265,26.4135 L72.25,21.4125 L66.79,22.6695 L66.2785,27.84 L63.0235,28.59 L64.087,18.5985 L61.522,19.1895 L60.4855,29.118 L57.2665,29.859 L58.3315,18.669 L58.33,8.097 L75.307,4.1625 Z M38.8375,31.2105 L38.8375,31.2105 L45.754,29.619 L45.754,10.6995 L38.9905,12.258 L38.9905,9.6195 L56.083,5.6865 L56.083,8.3235 L49.3195,9.8805 L49.3195,28.7985 L56.236,27.2055 L56.236,30.108 L38.8375,34.113 L38.8375,31.2105 Z M33.6325,15.1335 L33.6385,13.4805 C29.2885,14.481 27.655,14.8575 23.3035,15.8595 L23.299,17.511 L19.5325,18.3795 L19.546,14.034 L26.452,12.444 L26.449,10.977 L30.5515,10.032 L30.5545,11.499 L37.474,9.906 L37.4635,14.2515 L33.6325,15.1335 Z" id="Fill-1"></path>
            </g>
        </g>
    </g>
</svg>