<svg xmlns="http://www.w3.org/2000/svg" viewBox="0 0 302 48"><title>logotype</title><path d="M13.9634,5.1109H12.729a24.374,24.374,0,0,0-6.4361.6172C4.8823,6.3453,3.207,9.2544,2.37,10.7534c-.1323.22-.2646.3964-.4853.3086l-.8814-.3086c-.1763-.0884-.2207-.2207-.1763-.441.441-1.6753,1.9395-7.4941,2.1158-8.1113.0883-.6172.353-.7934.5293-.7934.2641,0,.44.1762.705.4409a3.9492,3.9492,0,0,0,2.9976,1.146c2.38.0883,4.2319.2646,8.5522.2646h2.38c4.8491,0,6.7007-.1763,8.7285-.2646a8.0893,8.0893,0,0,0,3.1739-1.146c.3525-.2647.5288-.4409.7934-.4409s.3526.1762.4409.7055c.0879.7935.97,6.26,1.3223,8.3755.0444.2647-.0439.3525-.1763.397l-.8813.3086c-.1768.0439-.2647-.0884-.397-.3531-.6172-1.2343-2.248-4.0556-3.4824-4.937-1.2344-.7055-5.2017-.7934-6.7891-.7934H19.6059V28.6069c0,3.35.44,4.2319,1.4986,4.2319h2.5566c.1768,0,.2647.1763.2647.3965v.9258c0,.2646-.0879.4409-.441.4409-.44,0-1.8515-.1323-6.6123-.1323-4.4965,0-6.3476.1323-6.9648.1323-.2647,0-.353-.0884-.353-.397V33.1913c0-.2646.1323-.3525.3086-.3525H12.376a1.3193,1.3193,0,0,0,1.455-1.19c.1324-1.146.1324-14.6353.1324-15.5171Z"/><path d="M29.2109,44.08a2.1649,2.1649,0,0,1,2.1157-2.2041,4.5186,4.5186,0,0,1,1.94.5293,1.0691,1.0691,0,0,0,1.146-.0884,41.0033,41.0033,0,0,0,3.35-7.0532c-.2642-1.3222-5.378-15.0761-5.6865-15.8257-.4849-1.146-.9258-1.8515-1.8072-1.8515h-.8818c-.2647,0-.3526-.1323-.3526-.3526v-.97c0-.1763.0879-.3086.3526-.3086.3525,0,1.4106.1323,4.6728.1323,2.5567,0,3.8794-.1323,4.4082-.1323.2647,0,.3526.0879.3526.3526v.97a.2784.2784,0,0,1-.3086.3086h-.6611c-.441,0-.7935.2646-.6612.9258.1323.8818,2.7774,9.8745,3.2178,10.8442h.1763c.7939-1.6748,3.8794-9.1689,4.1-10.0947.2641-1.146-.1324-1.6753-.9258-1.6753h-.7056c-.2641,0-.3525-.1323-.3525-.3086v-.97c0-.22.0884-.3526.3525-.3526.5293,0,1.4107.1323,3.791.1323,1.4991,0,2.5572-.1323,2.9536-.1323.2207,0,.3086.1323.3086.3526v.9257c0,.2647-.0879.3526-.2641.3526h-.5293a1.976,1.976,0,0,0-1.5869.7495c-.8819,1.146-3.8794,7.7588-7.0533,14.9-2.2041,4.7607-4.0556,8.9048-4.8491,10.3154-.7051,1.146-1.5869,2.9092-3.9673,2.9092A2.3926,2.3926,0,0,1,29.2109,44.08Z"/><path d="M57.6845,42.2285c.044,2.5566.3526,2.7329,1.2339,2.7329h1.5874c.2642,0,.3526.1323.3526.3525V46.24c0,.2646-.0884.3525-.4409.3525s-1.6753-.1323-5.1138-.1323c-2.9092,0-4.4961.1323-4.8491.1323-.2642,0-.3526-.0879-.3526-.3525v-.97c0-.1763.0884-.3086.2647-.3086h1.5869c.6172,0,.8818-.441.97-1.146.0884-.97.0884-2.7334.0884-6.0835V22.5234a2.3886,2.3886,0,0,0-1.499-2.645l-.97-.5289c-.2646-.1767-.3525-.2646-.3525-.4409v-.4409c0-.1763.0879-.2646.3525-.3525l5.0254-2.2041a3.3275,3.3275,0,0,1,1.2344-.3531c.22,0,.3526.2647.397.5733l.3081,2.16h.0884a8.05,8.05,0,0,1,5.9951-2.7334,6.8586,6.8586,0,0,1,5.1138,2.2041,8.0239,8.0239,0,0,1,2.38,6.3042c0,6.3477-4.2319,10.9322-9.61,10.9322a9.8108,9.8108,0,0,1-3.8794-.7935Zm-.0883-12.4317a2.6913,2.6913,0,0,0,1.146,2.4688,5.3217,5.3217,0,0,0,3.4384,1.0136c2.1163,0,4.2764-1.7631,4.3643-6.3916,0-4.1-1.4106-8.7724-5.1577-8.7724a4.7617,4.7617,0,0,0-3.791,1.9394Z"/><path d="M78.0273,24.6835c0,4.4961,3.2183,7.1411,5.731,7.1411a5.9824,5.9824,0,0,0,5.3339-2.5566c.1763-.3086.3526-.3086.5288-.2207l.6612.397c.2207.1323.3086.3086,0,.8818a8.735,8.735,0,0,1-8.023,4.6724c-2.8213,0-4.8047-.6172-6.3476-2.38a9.9812,9.9812,0,0,1-2.4688-7.2734,9.1127,9.1127,0,0,1,2.16-6.5244c1.8515-2.38,3.8349-3.2623,7.67-3.2623,5.0254,0,6.6562,5.2461,6.6562,7.0533,0,.6616-.4409.7055-1.2343.7055H78.0273ZM83.4936,21.73c.9258,0,1.4546-.2646,1.4546-.6172,0-1.3227-.44-3.9233-2.7329-3.9233-2.16,0-3.4824,1.5869-4.0557,4.5405Z"/><path d="M104.3393,21.9063c0-1.3228-.2646-2.2041-2.2925-2.7334-.3965-.0879-.44-.22-.44-.3965v-.4849c0-.1762.0879-.2646.3086-.3525.6172-.2646,4.981-1.8076,5.73-2.1162a3.05,3.05,0,0,1,1.0581-.2647c.2646,0,.3965.1763.3525.5293-.0879.7051-.0879,3.5264-.0879,7.1856v4.7607c0,1.6753,0,3.2622.0879,3.791.0884.7935.2647,1.146.7056,1.146h1.7632c.3525,0,.4409.0884.4409.3086v.8819c0,.2646-.0884.4409-.3531.4409-.3525,0-2.38-.1323-5.3339-.1323-2.5567,0-4.232.1323-4.7608.1323-.22,0-.3525-.0884-.3525-.4409v-.8374c0-.2647.1763-.3531.4409-.3531h1.9395c.4409,0,.6611-.1762.705-.8813.0445-1.3228.0884-2.7334.0884-3.9673Zm1.499-10.8887a2.57,2.57,0,0,1-2.6894-2.4682,2.7169,2.7169,0,0,1,2.9536-2.4688,2.4118,2.4118,0,0,1,2.6011,2.2925A2.6274,2.6274,0,0,1,105.8383,11.0176Z"/><path d="M114.08,28.9155c-.0439-.1768,0-.3086.1324-.3531l.8374-.2641c.1762-.0445.3086-.0445.3969.1318l1.4546,2.4688a3.9455,3.9455,0,0,0,3.791,2.38,2.8461,2.8461,0,0,0,3.13-2.6889c0-1.7632-1.146-2.5567-4.2319-3.4385-2.9976-.8814-5.3779-2.38-5.3779-5.51a5.36,5.36,0,0,1,2.248-4.6284,7.2885,7.2885,0,0,1,4.5845-1.4551,8.51,8.51,0,0,1,4.2764.97c.6611.3525.7934.5288.8374.7934l.5732,2.9976a.5849.5849,0,0,1-.0444.4848l-.8374.3965a.277.277,0,0,1-.3526-.1762l-2.1162-2.38a3.5705,3.5705,0,0,0-2.7768-1.3667c-1.6314,0-3.042.97-3.042,2.5127,0,1.8076,1.3227,2.3364,3.9673,3.042a8.1273,8.1273,0,0,1,4.4086,2.292,4.5251,4.5251,0,0,1,1.3223,3.5268c0,3.7027-2.9975,6.3477-7.3618,6.3477a9.2639,9.2639,0,0,1-4.7607-1.146,1.1355,1.1355,0,0,1-.3531-.4849Z"/><path d="M142.6552,15.25c0-1.587-.0888-6.9649-.1328-7.7144-.1328-2.5566-.8379-2.645-2.5127-2.645h-1.4111c-.2637,0-.3526-.0879-.3526-.3526V3.524c0-.2647.0889-.397.3526-.397.6172,0,2.7334.1763,6.4365.1323,1.4111,0,4.0557-.1323,6.4365-.1323,3.35,0,6.1709.3086,7.7578,1.19,2.4688,1.3223,3.3506,3.35,3.3506,5.9951,0,3.5264-1.8515,5.6426-5.9951,7.1856v.22c5.0254,1.3228,7.9346,3.9673,7.9346,8.64,0,2.38-1.3223,5.5547-3.4385,6.7007-1.8516,1.0581-4.6728,1.543-9.6094,1.543-1.7636,0-4.6738-.1323-6.4365-.1323-3.4385,0-5.29.1323-6.2158.1323a.3147.3147,0,0,1-.3086-.3525V33.1474a.2786.2786,0,0,1,.3086-.3086h1.8955c1.3232,0,1.6318-.5293,1.7627-1.8955.0889-1.0581.1777-6.877.1777-10.4917Zm5.377,1.8515c.7051.044,1.3222.044,2.0283.044a7.7621,7.7621,0,0,0,4.6729-1.2784,6.3783,6.3783,0,0,0,2.2919-5.2016,5.4789,5.4789,0,0,0-1.9394-4.4966,9.1788,9.1788,0,0,0-5.0254-1.5425,6.2762,6.2762,0,0,0-1.3232.0879.8765.8765,0,0,0-.5723.7056c-.0449.8374-.1328,4.6284-.1328,8.3315Zm0,10.2271c0,4.144.9707,5.8632,3.791,5.8632,3.4395,0,6.6133-1.6313,6.6133-7.0092,0-3.6148-1.7637-5.9073-4.2324-6.877a12.9991,12.9991,0,0,0-5.0254-.7934h-1.1465v8.8164Z"/><path d="M171.8017,24.6835c0,4.4961,3.2188,7.1411,5.73,7.1411a5.982,5.982,0,0,0,5.334-2.5566c.1767-.3086.3535-.3086.5293-.2207l.6611.397c.2207.1323.3086.3086,0,.8818a8.7341,8.7341,0,0,1-8.0225,4.6724c-2.8222,0-4.8047-.6172-6.3476-2.38a9.9794,9.9794,0,0,1-2.4688-7.2734,9.1083,9.1083,0,0,1,2.16-6.5244c1.8515-2.38,3.834-3.2623,7.67-3.2623,5.0254,0,6.6563,5.2461,6.6563,7.0533,0,.6616-.4414.7055-1.2344.7055h-10.668Zm5.4668-2.9536c.9258,0,1.4541-.2646,1.4541-.6172,0-1.3227-.44-3.9233-2.7334-3.9233-2.16,0-3.4824,1.5869-4.0547,4.5405Z"/><path d="M196.5732,32.31a8.5248,8.5248,0,0,1-3.835,2.38,9.2251,9.2251,0,0,1-2.8213.3086c-1.6308,0-3.0419-1.3223-3.0419-3.791,0-2.0279.8818-4.0113,4.0556-5.4219a46.33,46.33,0,0,0,5.3789-2.7334V20.76a4.3109,4.3109,0,0,0-.706-2.4688,2.9412,2.9412,0,0,0-2.2041-.6611,4.5918,4.5918,0,0,0-2.5567.7935c-.6172.44-.1758,1.102-.1758,2.16a2.3113,2.3113,0,0,1-2.6455,2.5572,1.4335,1.4335,0,0,1-1.499-1.4991,4.6813,4.6813,0,0,1,2.0274-3.6147,11.6214,11.6214,0,0,1,7.1425-2.4688c2.4678,0,3.2618.5293,4.0547,1.2344a4.1355,4.1355,0,0,1,1.0586,3.3062l.0879,6.9653V29.18c0,2.38.3525,3.086,1.1465,3.086a1.6931,1.6931,0,0,0,1.41-.7056c.1757-.2642.2646-.2642.4414-.1763l.5283.3531c.1767.0878.2646.2641.0888.705a4.4325,4.4325,0,0,1-4.0566,2.5567,3.6388,3.6388,0,0,1-3.7031-2.689Zm-.2637-7.626c-1.94,1.2339-4.85,1.9834-4.85,5.2017,0,1.8071.97,2.689,2.0274,2.689,1.2343-.0884,2.8222-1.3228,2.8222-2.1163Z"/><path d="M218.8447,32.0009h-.2637a7.4469,7.4469,0,0,1-5.8193,2.9976c-1.5869,0-2.9971,0-4.54-1.9395-1.5879-2.0718-1.6308-3.7031-1.6308-6.1714,0-2.1162.0429-3.6147.0429-4.54,0-1.0581,0-2.645-.0878-3.1743a1.5958,1.5958,0,0,0-1.543-1.5869c-.7051-.0879-.9688-.0879-.9688-.3526V16.44c0-.2647.0879-.3526.5284-.3526h5.29a2.683,2.683,0,0,0,.6611-.0883,2.2808,2.2808,0,0,1,.4854-.0879.4937.4937,0,0,1,.44.5288c0,.4409-.1767,2.4687-.1767,5.51v2.7334c0,1.7632-.3086,4.7608.8818,6.6123a2.7442,2.7442,0,0,0,2.8213,1.2344,4.2133,4.2133,0,0,0,3.0859-1.6753,2.962,2.962,0,0,0,.4844-1.4106V19.085c0-1.146-.8369-1.4106-1.8945-1.499-.794-.0879-.8829-.1763-.8829-.3526V16.44c0-.3086.1329-.3526.5293-.3526h5.4668a3.4987,3.4987,0,0,0,.7491-.0883,3.0492,3.0492,0,0,1,.5732-.0879c.2647,0,.3525.2641.3525.44a51.4127,51.4127,0,0,0-.2646,5.9512V25.477c0,2.1157,0,4.2319.0879,5.1133.1767,1.3227.6172,1.499.9707,1.499a9.1143,9.1143,0,0,0,1.41-.0884c.3536-.0439.4854,0,.5293.1763l.1329.7056c.0429.2646-.045.3525-.2207.3964l-5.4668,1.543a2.6,2.6,0,0,1-.8809.1763.5568.5568,0,0,1-.6172-.5288Z"/><path d="M226.9658,18.5118a.557.557,0,0,1-.6172-.6172c0-.3526.2646-.6172.8379-.8374a18.5764,18.5764,0,0,0,6.039-5.5547.7266.7266,0,0,1,.7051-.44c.3535,0,.5293.2641.5293.6171l-.1758,4.3638h5.8184c.2646,0,.3525.1768.3086.353l-.4414,1.8511c-.043.1768-.1758.2647-.4395.2647h-5.334c-.0888,1.8515-.1328,3.9677-.1328,5.9072v3.9673c0,3.4384,1.4551,4.144,2.336,4.144a6.1082,6.1082,0,0,0,2.5566-.5293c.3086-.1323.4414-.1323.5293.0884l.2647.5288a.5436.5436,0,0,1-.1768.6172,9.1652,9.1652,0,0,1-5.5547,1.7632c-2.6445,0-4.6279-2.1157-4.6279-3.9673,0-1.5869.1318-5.1138.1318-6.7886V18.5118Z"/><path d="M244.3759,21.9063c0-1.3228-.2646-2.2041-2.2929-2.7334-.3965-.0879-.44-.22-.44-.3965v-.4849c0-.1762.0879-.2646.3086-.3525.6162-.2646,4.98-1.8076,5.73-2.1162a3.0449,3.0449,0,0,1,1.0576-.2647c.2646,0,.3965.1763.3525.5293-.0879.7051-.0879,3.5264-.0879,7.1856v4.7607c0,1.6753,0,3.2622.0879,3.791.0879.7935.2647,1.146.7051,1.146h1.7637c.3525,0,.4414.0884.4414.3086v.8819c0,.2646-.0889.4409-.3535.4409-.3526,0-2.3809-.1323-5.334-.1323-2.5567,0-4.2324.1323-4.7608.1323-.22,0-.3525-.0884-.3525-.4409v-.8374c0-.2647.1758-.3531.4414-.3531h1.9395c.44,0,.66-.1762.705-.8813.044-1.3228.0879-2.7334.0879-3.9673Zm1.4991-10.8887a2.5706,2.5706,0,0,1-2.69-2.4682A2.7171,2.7171,0,0,1,246.14,6.0806,2.4113,2.4113,0,0,1,248.74,8.3731,2.6273,2.6273,0,0,1,245.875,11.0176Z"/><path d="M261.2138,22.1264c0,3.5269-.0449,8.376.044,9.61.0879.7934.44,1.2338,1.2334,1.2338H264.52c.3525,0,.44.0884.44.397v.7935c0,.2646-.0879.4409-.2637.4409-.2646,0-1.9394-.1323-5.8193-.1323-2.6455,0-4.9365.1323-5.29.1323-.2637,0-.3526-.0884-.3526-.3525V33.2353c0-.1763.0889-.2647.44-.2647h1.7636c.8819,0,1.1465-.5288,1.1465-1.4985V18.2914h-2.998c-.1758,0-.2637-.1323-.2207-.4848l.1767-1.499c0-.1763.2207-.22.5733-.22h2.4687v-.8818c0-4.4966,1.3223-7.4058,3.2617-9.4336a10.1689,10.1689,0,0,1,7.4063-3.1738c2.3808,0,4.32.8813,4.32,2.7329a2.35,2.35,0,0,1-2.2051,2.1162,2.4041,2.4041,0,0,1-1.41-.353,2.5985,2.5985,0,0,1-1.2344-1.146,2.1716,2.1716,0,0,0-1.7637-1.146,2.9664,2.9664,0,0,0-2.7324,1.4106c-1.1465,1.5869-.97,5.1133-1.0137,8.4195v1.455H265.46c.3516,0,.3516.22.3516.3965l-.22,1.5869c-.044.1763-.2208.2207-.5733.2207h-3.8047Z"/><path d="M281.665,32.0009H281.4a7.4437,7.4437,0,0,1-5.8193,2.9976c-1.5859,0-2.9971,0-4.54-1.9395-1.5869-2.0718-1.6309-3.7031-1.6309-6.1714,0-2.1162.044-3.6147.044-4.54,0-1.0581,0-2.645-.0879-3.1743a1.597,1.597,0,0,0-1.543-1.5869c-.7051-.0879-.97-.0879-.97-.3526V16.44c0-.2647.0879-.3526.5283-.3526h5.291a2.6689,2.6689,0,0,0,.66-.0883,2.29,2.29,0,0,1,.4853-.0879.4929.4929,0,0,1,.44.5288c0,.4409-.1757,2.4687-.1757,5.51v2.7334c0,1.7632-.3086,4.7608.8808,6.6123a2.7457,2.7457,0,0,0,2.8223,1.2344,4.2151,4.2151,0,0,0,3.0859-1.6753,2.962,2.962,0,0,0,.4844-1.4106V19.085c0-1.146-.8379-1.4106-1.8955-1.499-.794-.0879-.8818-.1763-.8818-.3526V16.44c0-.3086.1328-.3526.5293-.3526h5.4668a3.5059,3.5059,0,0,0,.749-.0883,3.0264,3.0264,0,0,1,.5732-.0879c.2637,0,.3516.2641.3516.44a51.5864,51.5864,0,0,0-.2637,5.9512V25.477c0,2.1157,0,4.2319.0879,5.1133.1758,1.3227.6172,1.499.97,1.499a9.1206,9.1206,0,0,0,1.4112-.0884c.3525-.0439.4843,0,.5293.1763l.1318.7056c.0439.2646-.044.3525-.2207.3964l-5.4658,1.543a2.6055,2.6055,0,0,1-.8819.1763.5579.5579,0,0,1-.6172-.5288Z"/><path d="M293.122,17.586c0-3.0855-.0879-6.877-.1758-8.023a2.69,2.69,0,0,0-2.248-2.645l-.8828-.2642c-.2637-.0883-.2637-.1767-.2637-.353V5.772c0-.0884.0879-.2646.3526-.3525a36.8109,36.8109,0,0,0,6.6123-2.5572,4.0066,4.0066,0,0,1,.97-.2641c.2646,0,.44.1763.44.7934-.0879,2.38-.1758,11.5494-.1758,13.9742v6.3476c0,2.0278,0,6.5244.0879,7.8467.0879.7935.1768,1.4106,1.1465,1.4106H300.66c.44,0,.5293.0884.5293.397v.7935c0,.2646-.0889.4409-.2646.4409-.3526,0-2.292-.1323-5.378-.1323-3.3506,0-5.1142.1323-5.4658.1323-.2656,0-.3535-.1763-.3535-.4409v-.8374c0-.2647.0879-.3531.6172-.3531h1.6758c.44,0,1.1015-.3525,1.1015-1.5869V17.586Z"/></svg>